<svg width="33" height="33" viewBox="0 0 33 33" fill="none" xmlns="http://www.w3.org/2000/svg">
<path d="M16.25 0C13.0361 0 9.89429 0.953046 7.22199 2.73862C4.54969 4.52419 2.46689 7.06209 1.23696 10.0314C0.00704087 13.0007 -0.314763 16.268 0.312247 19.4202C0.939256 22.5724 2.48692 25.4679 4.75952 27.7405C7.03213 30.0131 9.9276 31.5607 13.0798 32.1878C16.232 32.8148 19.4993 32.493 22.4686 31.263C25.4379 30.0331 27.9758 27.9503 29.7614 25.278C31.547 22.6057 32.5 19.4639 32.5 16.25C32.4955 11.9416 30.7819 7.81102 27.7355 4.76454C24.689 1.71806 20.5584 0.00454972 16.25 0ZM16.25 30C13.5305 30 10.8721 29.1936 8.61092 27.6827C6.34974 26.1718 4.58737 24.0244 3.54666 21.5119C2.50596 18.9994 2.23366 16.2347 2.76421 13.5675C3.29476 10.9003 4.60432 8.45025 6.52729 6.52728C8.45026 4.60431 10.9003 3.29475 13.5675 2.7642C16.2348 2.23366 18.9994 2.50595 21.5119 3.54666C24.0244 4.58736 26.1718 6.34973 27.6827 8.61091C29.1936 10.8721 30 13.5305 30 16.25C29.9959 19.8955 28.5459 23.3904 25.9682 25.9682C23.3904 28.5459 19.8955 29.9959 16.25 30ZM22.5 11.25V18.75C22.5 19.0815 22.3683 19.3995 22.1339 19.6339C21.8995 19.8683 21.5815 20 21.25 20C20.9185 20 20.6005 19.8683 20.3661 19.6339C20.1317 19.3995 20 19.0815 20 18.75V14.2672L12.1344 22.1344C12.0182 22.2505 11.8804 22.3426 11.7286 22.4055C11.5769 22.4683 11.4143 22.5007 11.25 22.5007C11.0858 22.5007 10.9231 22.4683 10.7714 22.4055C10.6196 22.3426 10.4818 22.2505 10.3656 22.1344C10.2495 22.0182 10.1574 21.8804 10.0945 21.7286C10.0317 21.5769 9.99931 21.4142 9.99931 21.25C9.99931 21.0858 10.0317 20.9231 10.0945 20.7714C10.1574 20.6196 10.2495 20.4818 10.3656 20.3656L18.2328 12.5H13.75C13.4185 12.5 13.1005 12.3683 12.8661 12.1339C12.6317 11.8995 12.5 11.5815 12.5 11.25C12.5 10.9185 12.6317 10.6005 12.8661 10.3661C13.1005 10.1317 13.4185 10 13.75 10H21.25C21.5815 10 21.8995 10.1317 22.1339 10.3661C22.3683 10.6005 22.5 10.9185 22.5 11.25Z" fill="#EB9F3E"/>
</svg>
