<svg width="40" height="40" viewBox="0 0 40 40" fill="none" xmlns="http://www.w3.org/2000/svg">
<path opacity="0.2" d="M32.8529 32.8533C30.1607 35.5455 22.2279 31.9736 15.1248 24.8751C8.02165 17.7767 4.45447 9.8439 7.14665 7.14702C9.83884 4.45015 17.7717 8.02671 24.8748 15.1251C31.9779 22.2236 35.5451 30.1564 32.8529 32.8533Z" fill="#EB9F3E"/>
<path d="M30.6435 19.9998C34.4951 14.592 36.4591 9.00289 33.7279 6.27164C30.9966 3.54039 25.4076 5.50446 19.9998 9.35602C14.592 5.50446 9.00289 3.54039 6.27164 6.27164C3.54039 9.00289 5.50446 14.592 9.35602 19.9998C5.50446 25.4076 3.54039 30.9966 6.27164 33.7279C7.15133 34.6076 8.32633 34.9998 9.69508 34.9998C12.5826 34.9998 16.3326 33.2545 20.0076 30.6435C23.667 33.2545 27.417 34.9998 30.3123 34.9998C31.681 34.9998 32.8576 34.606 33.7357 33.7279C36.4591 30.9966 34.4951 25.4076 30.6435 19.9998ZM31.9607 8.03883C33.1545 9.23258 32.3482 13.1013 29.067 17.9263C28.0289 16.6413 26.9237 15.412 25.756 14.2435C24.5874 13.0774 23.3581 11.9738 22.0732 10.9373C26.8982 7.65602 30.767 6.84352 31.9607 8.03883ZM27.5451 19.9998C26.4394 21.3985 25.2519 22.7305 23.9888 23.9888C22.7305 25.2519 21.3985 26.4394 19.9998 27.5451C18.6011 26.4394 17.2691 25.2519 16.0107 23.9888C14.7476 22.7305 13.5601 21.3985 12.4545 19.9998C14.6727 17.2044 17.2044 14.6727 19.9998 12.4545C21.3985 13.5601 22.7305 14.7476 23.9888 16.0107C25.2519 17.2691 26.4394 18.6011 27.5451 19.9998ZM8.03883 8.03883C8.38258 7.69352 8.94977 7.51539 9.69821 7.51539C11.5451 7.51539 14.4935 8.59352 17.9248 10.9373C16.6411 11.9746 15.4123 13.0782 14.2435 14.2435C13.0774 15.4121 11.9738 16.6414 10.9373 17.9263C7.65602 13.1013 6.84508 9.23258 8.03883 8.03883ZM8.03883 31.9607C6.84508 30.767 7.65602 26.8982 10.9373 22.0732C11.9753 23.3582 13.0805 24.5875 14.2482 25.756C15.416 26.9212 16.6437 28.0248 17.9263 29.0623C13.1013 32.3435 9.23258 33.156 8.03883 31.9607ZM31.9607 31.9607C30.767 33.156 26.8982 32.3482 22.0732 29.067C23.3575 28.0281 24.5868 26.9229 25.756 25.756C26.9221 24.5874 28.0257 23.3581 29.0623 22.0732C32.3435 26.8982 33.1545 30.767 31.9607 31.9607ZM21.8748 19.9998C21.8748 20.3706 21.7648 20.7331 21.5588 21.0415C21.3527 21.3498 21.0599 21.5901 20.7173 21.732C20.3747 21.874 19.9977 21.9111 19.634 21.8387C19.2703 21.7664 18.9362 21.5878 18.6739 21.3256C18.4117 21.0634 18.2331 20.7293 18.1608 20.3656C18.0884 20.0018 18.1256 19.6248 18.2675 19.2822C18.4094 18.9396 18.6497 18.6468 18.9581 18.4408C19.2664 18.2347 19.6289 18.1248 19.9998 18.1248C20.497 18.1248 20.974 18.3223 21.3256 18.6739C21.6772 19.0256 21.8748 19.5025 21.8748 19.9998Z" fill="#EB9F3E"/>
</svg>
