<svg width="73" height="164" viewBox="0 0 73 164" fill="none" xmlns="http://www.w3.org/2000/svg">
<g clip-path="url(#clip0_339_214)">
<path d="M59.382 114.069C46.5357 113.342 40.1265 116.703 28.9655 126.162C22.3351 138.845 20.7681 147.939 22.2304 163.573C34.4277 148.094 41.6103 143.303 55.0111 141.943L59.382 114.069Z" fill="#FFC481"/>
<path d="M29.1966 125.972C19.1509 144.049 23.9171 164.167 22.439 163.551C19.6481 148.414 17.525 139.97 19.3872 124.204C21.4482 110.586 25.3267 104.693 36.1721 96.5728C39.409 97.8321 41.5866 98.3167 46.8534 98.3411C56.3773 97.555 61.3318 98.1175 69.5239 100.994C51.5758 104.909 39.2423 107.896 29.1966 125.972Z" fill="#C03652"/>
<path d="M69.1562 160.669C52.1937 150.429 41.6746 153.806 22.5957 162.695C39.0426 149.718 48.8614 145.884 62.1078 147.837L64.4573 130.504H73.0005L69.1562 160.669Z" fill="#C03652"/>
<path d="M62.116 148.485C46.3111 147.175 37.6095 152.004 22.1611 163.13C34.065 148.373 41.2121 143.104 55.1293 141.162L58.4043 119.194L66.4826 120.081L62.116 148.485Z" fill="#FF9E31"/>
<path d="M21.9979 13.9204C19.0271 13.0755 26.3831 5.06086 26.5604 9.57029L27.2122 0L40.8997 16.313V26.3183L43.7243 28.0584L48.504 30.0159C48.504 30.0159 49.8615 30.2334 50.0249 30.0159C50.1878 29.7984 52.4686 33.2785 51.9802 33.2785C51.4914 33.2785 50.4537 33.5597 50.0249 34.5836C49.5955 35.6074 47.4051 30.9482 47.4177 30.8859L40.8997 28.0584V38.7162L34.5991 30.8859L29.3848 32.4085L28.0812 28.4934L24.3878 25.6658C20.0308 22.1855 24.9687 14.7653 21.9979 13.9204Z" fill="#C03652"/>
<path d="M46.2766 86.1328C52.876 86.1328 58.226 80.7768 58.226 74.1699C58.226 67.563 52.876 62.207 46.2766 62.207C39.6771 62.207 34.3271 67.563 34.3271 74.1699C34.3271 80.7768 39.6771 86.1328 46.2766 86.1328Z" fill="#FFB45E"/>
<path d="M23.3001 75.6924C4.69444 111.375 10.3158 137.785 22.6401 163.565C15.8292 125.535 17.8328 110.222 36.283 96.573C28.907 92.2655 25.7422 88.3909 23.3001 75.6924Z" fill="#FF9E31"/>
<path d="M34.1216 39.5864C-9.62322 71.2415 -8.98125 128.382 22.8237 163.565C6.82737 129.177 8.111 110.103 23.4755 76.345C23.9442 60.367 25.162 51.8064 34.1216 39.5864Z" fill="#FFC481"/>
</g>
<defs>
<clipPath id="clip0_339_214">
<rect width="73" height="164" fill="white"/>
</clipPath>
</defs>
</svg>
