<svg width="40" height="40" viewBox="0 0 40 40" fill="none" xmlns="http://www.w3.org/2000/svg">
<path opacity="0.2" d="M28.75 20C28.75 21.7306 28.2368 23.4223 27.2754 24.8612C26.3139 26.3002 24.9473 27.4217 23.3485 28.0839C21.7496 28.7462 19.9903 28.9195 18.293 28.5819C16.5956 28.2443 15.0365 27.4109 13.8128 26.1872C12.5891 24.9635 11.7558 23.4044 11.4181 21.707C11.0805 20.0097 11.2538 18.2504 11.9161 16.6515C12.5783 15.0527 13.6998 13.6861 15.1388 12.7246C16.5777 11.7632 18.2694 11.25 20 11.25C22.3206 11.25 24.5462 12.1719 26.1872 13.8128C27.8281 15.4538 28.75 17.6794 28.75 20Z" fill="#EB9F3E"/>
<path d="M20 3.75C16.7861 3.75 13.6443 4.70305 10.972 6.48862C8.29969 8.27419 6.21689 10.8121 4.98696 13.7814C3.75704 16.7507 3.43524 20.018 4.06225 23.1702C4.68926 26.3224 6.23692 29.2179 8.50952 31.4905C10.7821 33.7631 13.6776 35.3107 16.8298 35.9378C19.982 36.5648 23.2493 36.243 26.2186 35.013C29.1879 33.7831 31.7258 31.7003 33.5114 29.028C35.297 26.3557 36.25 23.2139 36.25 20C36.2455 15.6916 34.5319 11.561 31.4855 8.51454C28.439 5.46806 24.3084 3.75455 20 3.75ZM33.6922 18.75H29.9188C29.6382 16.5489 28.6346 14.5033 27.0656 12.9344C25.4967 11.3654 23.4511 10.3618 21.25 10.0812V6.30781C24.4498 6.60407 27.4453 8.0101 29.7176 10.2824C31.9899 12.5547 33.3959 15.5502 33.6922 18.75ZM18.75 18.75H12.6063C12.8679 17.2158 13.5996 15.8006 14.7001 14.7001C15.8006 13.5996 17.2158 12.8679 18.75 12.6062V18.75ZM18.75 21.25V27.3938C17.2158 27.1321 15.8006 26.4004 14.7001 25.2999C13.5996 24.1994 12.8679 22.7842 12.6063 21.25H18.75ZM21.25 21.25H27.3938C27.1321 22.7842 26.4004 24.1994 25.2999 25.2999C24.1994 26.4004 22.7842 27.1321 21.25 27.3938V21.25ZM21.25 18.75V12.6062C22.7842 12.8679 24.1994 13.5996 25.2999 14.7001C26.4004 15.8006 27.1321 17.2158 27.3938 18.75H21.25ZM18.75 6.30781V10.0812C16.5489 10.3618 14.5034 11.3654 12.9344 12.9344C11.3654 14.5033 10.3618 16.5489 10.0813 18.75H6.30782C6.60407 15.5502 8.01011 12.5547 10.2824 10.2824C12.5547 8.0101 15.5502 6.60407 18.75 6.30781ZM6.30782 21.25H10.0813C10.3618 23.4511 11.3654 25.4967 12.9344 27.0656C14.5034 28.6346 16.5489 29.6382 18.75 29.9187V33.6922C15.5502 33.3959 12.5547 31.9899 10.2824 29.7176C8.01011 27.4453 6.60407 24.4498 6.30782 21.25ZM21.25 33.6922V29.9187C23.4511 29.6382 25.4967 28.6346 27.0656 27.0656C28.6346 25.4967 29.6382 23.4511 29.9188 21.25H33.6922C33.3959 24.4498 31.9899 27.4453 29.7176 29.7176C27.4453 31.9899 24.4498 33.3959 21.25 33.6922Z" fill="#EB9F3E"/>
</svg>
