<svg width="40" height="40" viewBox="0 0 40 40" fill="none" xmlns="http://www.w3.org/2000/svg">
<path opacity="0.2" d="M36.25 15.3687C36.0516 21.3937 31.0422 26.25 25.0141 26.25C23.5731 26.2538 22.1449 25.9795 20.8078 25.4422L18.75 27.5H15V31.25H11.25V35H6.25C5.91848 35 5.60054 34.8683 5.36612 34.6339C5.1317 34.3995 5 34.0815 5 33.75V29.2672C5.00015 28.9361 5.13165 28.6186 5.36562 28.3844L14.5578 19.1922C14.0205 17.8551 13.7462 16.4269 13.75 14.9859C13.75 8.95781 18.6062 3.94843 24.6312 3.75625C26.1704 3.70494 27.7036 3.97017 29.1361 4.53552C30.5685 5.10086 31.8696 5.95428 32.9589 7.04291C34.0481 8.13154 34.9022 9.4322 35.4683 10.8643C36.0344 12.2965 36.3005 13.8296 36.25 15.3687Z" fill="#EB9F3E"/>
<path d="M33.8391 6.16147C31.8536 4.17321 29.2561 2.9119 26.4657 2.58109C23.6754 2.25028 20.855 2.86926 18.4596 4.33816C16.0642 5.80705 14.2336 8.04017 13.2632 10.6772C12.2928 13.3141 12.2392 16.2012 13.111 18.8724L4.48283 27.5005C4.24967 27.7318 4.06482 28.0072 3.93901 28.3106C3.81321 28.6139 3.74896 28.9393 3.75001 29.2677V33.7505C3.75001 34.4136 4.0134 35.0495 4.48225 35.5183C4.95109 35.9871 5.58697 36.2505 6.25001 36.2505H11.25C11.5815 36.2505 11.8995 36.1188 12.1339 35.8844C12.3683 35.65 12.5 35.3321 12.5 35.0005V32.5005H15C15.3315 32.5005 15.6495 32.3688 15.8839 32.1344C16.1183 31.9 16.25 31.5821 16.25 31.2505V28.7505H18.75C18.9142 28.7507 19.0768 28.7184 19.2286 28.6557C19.3803 28.593 19.5182 28.501 19.6344 28.3849L21.1281 26.8896C22.3784 27.2963 23.6852 27.5025 25 27.5005H25.0156C27.4866 27.4975 29.9013 26.7622 31.9546 25.3875C34.0079 24.0128 35.6077 22.0604 36.5519 19.7769C37.4961 17.4934 37.7424 14.9813 37.2595 12.558C36.7766 10.1346 35.5864 7.90869 33.8391 6.16147ZM35 15.3287C34.8297 20.6552 30.3516 24.9943 25.0172 25.0005H25C23.7346 25.0027 22.4805 24.7635 21.3047 24.2958C21.0747 24.196 20.82 24.1677 20.5737 24.2145C20.3274 24.2613 20.1008 24.3811 19.9235 24.5583L18.2328 26.2505H15C14.6685 26.2505 14.3506 26.3822 14.1161 26.6166C13.8817 26.8511 13.75 27.169 13.75 27.5005V30.0005H11.25C10.9185 30.0005 10.6005 30.1322 10.3661 30.3666C10.1317 30.6011 10 30.919 10 31.2505V33.7505H6.25001V29.2677L15.4422 20.0771C15.6194 19.8997 15.7392 19.6732 15.7861 19.4269C15.8329 19.1806 15.8045 18.9258 15.7047 18.6958C15.2356 17.5161 14.9964 16.2576 15 14.988C15 9.65366 19.3453 5.17554 24.6719 5.00522C26.0401 4.95956 27.4032 5.19532 28.6766 5.6979C29.95 6.20048 31.1066 6.95918 32.0749 7.92699C33.0431 8.8948 33.8024 10.0511 34.3055 11.3243C34.8087 12.5975 35.0451 13.9604 35 15.3287ZM30 11.8755C30 12.2464 29.89 12.6089 29.684 12.9172C29.478 13.2256 29.1852 13.4659 28.8425 13.6078C28.4999 13.7497 28.1229 13.7869 27.7592 13.7145C27.3955 13.6422 27.0614 13.4636 26.7992 13.2014C26.537 12.9391 26.3584 12.605 26.286 12.2413C26.2137 11.8776 26.2508 11.5006 26.3927 11.158C26.5347 10.8154 26.775 10.5226 27.0833 10.3165C27.3917 10.1105 27.7542 10.0005 28.125 10.0005C28.6223 10.0005 29.0992 10.1981 29.4508 10.5497C29.8025 10.9013 30 11.3783 30 11.8755Z" fill="#EB9F3E"/>
</svg>
