<svg width="757" height="209" viewBox="0 0 757 209" fill="none" xmlns="http://www.w3.org/2000/svg">
<g filter="url(#filter0_d_3286_11962)">
<rect x="8" y="8" width="741" height="193" rx="6" fill="url(#paint0_linear_3286_11962)"/>
</g>
<mask id="mask0_3286_11962" style="mask-type:luminance" maskUnits="userSpaceOnUse" x="35" y="73" width="171" height="85">
<path d="M35 73H205.382V157.019H35V73Z" fill="white"/>
</mask>
<g mask="url(#mask0_3286_11962)">
<mask id="mask1_3286_11962" style="mask-type:luminance" maskUnits="userSpaceOnUse" x="35" y="72" width="171" height="86">
<path d="M205.791 72.5469H35V157.447H205.791V72.5469Z" fill="white"/>
</mask>
<g mask="url(#mask1_3286_11962)">
<mask id="mask2_3286_11962" style="mask-type:luminance" maskUnits="userSpaceOnUse" x="35" y="73" width="171" height="85">
<path d="M35 73H205.24V157.019H35V73Z" fill="white"/>
</mask>
<g mask="url(#mask2_3286_11962)">
<path d="M35 79C35 75.6863 37.6863 73 41 73H199.22C202.534 73 205.22 75.6863 205.22 79V151.019C205.22 154.333 202.534 157.019 199.22 157.019H41C37.6863 157.019 35 154.333 35 151.019V79Z" fill="#005F70"/>
</g>
</g>
</g>
<path d="M122.721 98.072H121.335L120.319 95.0485H115.628L114.603 98.072H113.252L117.091 87.0547H118.882L122.721 98.072ZM117.883 88.3899L115.989 93.9631H119.949L118.064 88.3899H117.883Z" fill="white"/>
<path d="M125.527 98.1503C125.238 98.1503 125.012 98.0706 124.847 97.9091C124.685 97.7497 124.605 97.5344 124.605 97.263C124.605 97.0046 124.685 96.7936 124.847 96.6256C125.012 96.4533 125.238 96.3672 125.527 96.3672C125.819 96.3672 126.047 96.449 126.215 96.6084C126.381 96.7699 126.465 96.9852 126.465 97.2544C126.465 97.5193 126.379 97.7347 126.207 97.9005C126.039 98.0685 125.813 98.1503 125.527 98.1503Z" fill="white"/>
<path d="M45.0472 119.564H43.8506V108.547H45.7703L49.1103 117.876H49.2653L52.5967 108.547H54.4561V119.564H53.2251V110.58L53.0357 110.545L49.7818 119.564H48.4991L45.2365 110.545L45.0472 110.58V119.564Z" fill="white"/>
<path d="M59.5507 119.72C58.7286 119.72 58.0895 119.509 57.6311 119.083C57.1705 118.659 56.9424 118.049 56.9424 117.257C56.9424 116.764 57.0414 116.348 57.2437 116.008C57.4503 115.67 57.7645 115.394 58.1906 115.181C58.621 114.963 59.1806 114.797 59.8692 114.681C60.4718 114.584 60.9281 114.472 61.238 114.345C61.5522 114.22 61.7631 114.078 61.8664 113.923C61.974 113.768 62.0299 113.574 62.0299 113.337C62.0299 112.958 61.9008 112.67 61.6426 112.467C61.3843 112.267 60.9711 112.166 60.403 112.166C59.8628 112.166 59.4001 112.273 59.017 112.485C58.6318 112.691 58.2788 113.001 57.9582 113.415H57.8118L57.2092 112.562C57.5579 112.114 58.0034 111.759 58.5435 111.494C59.088 111.231 59.7078 111.098 60.403 111.098C61.3779 111.098 62.0988 111.313 62.5637 111.744C63.0285 112.174 63.2609 112.769 63.2609 113.527V117.929C63.2609 118.394 63.4546 118.626 63.8463 118.626C63.9776 118.626 64.1046 118.605 64.2251 118.557L64.3284 118.583L64.4747 119.436C64.3822 119.501 64.2617 119.546 64.1132 119.574C63.9625 119.608 63.8119 119.626 63.6569 119.626C63.2028 119.626 62.8585 119.526 62.6239 119.324C62.3872 119.124 62.2387 118.829 62.1763 118.437L62.0213 118.42C61.7846 118.857 61.4661 119.184 61.0658 119.402C60.6634 119.613 60.1576 119.72 59.5507 119.72ZM59.8176 118.747C60.2824 118.747 60.6827 118.641 61.0228 118.428C61.3606 118.211 61.6189 117.909 61.7975 117.524C61.9804 117.14 62.073 116.692 62.073 116.18V115.129L61.9266 115.095C61.7416 115.228 61.5156 115.34 61.2466 115.431C60.9819 115.517 60.6117 115.594 60.1361 115.663C59.654 115.728 59.2688 115.827 58.9826 115.965C58.7006 116.102 58.5005 116.275 58.38 116.481C58.2595 116.688 58.1992 116.947 58.1992 117.257C58.1992 117.739 58.3412 118.109 58.6296 118.368C58.9159 118.622 59.3118 118.747 59.8176 118.747Z" fill="white"/>
<path d="M66.1602 119.564V107.918H67.3825V114.723H67.5891L70.6796 111.252H71.9622V111.432L68.6738 115.154L72.2807 119.375V119.564H70.912L67.5891 115.722H67.3825V119.564H66.1602Z" fill="white"/>
<path d="M80.2213 115.698H74.5139C74.5483 116.703 74.7894 117.444 75.237 117.92C75.689 118.392 76.3066 118.626 77.0878 118.626C77.684 118.626 78.1596 118.521 78.5168 118.308C78.8784 118.097 79.1624 117.765 79.369 117.317H79.5326L80.3246 117.791C80.0835 118.394 79.6983 118.867 79.1711 119.212C78.6416 119.552 77.9487 119.72 77.0878 119.72C76.2829 119.72 75.5921 119.563 75.0132 119.247C74.4386 118.932 73.9974 118.452 73.6875 117.808C73.3776 117.166 73.2227 116.367 73.2227 115.413C73.2227 114.472 73.3862 113.678 73.7133 113.027C74.0405 112.379 74.4881 111.897 75.0562 111.58C75.6287 111.259 76.2829 111.098 77.019 111.098C78.0799 111.098 78.9085 111.399 79.5068 112.002C80.1029 112.601 80.4042 113.49 80.4107 114.672C80.4107 115.133 80.3978 115.443 80.3762 115.603L80.2213 115.698ZM79.1969 114.672C79.1797 113.79 78.9838 113.146 78.6115 112.743C78.237 112.342 77.7076 112.14 77.019 112.14C76.2894 112.14 75.7148 112.345 75.2973 112.752C74.8841 113.154 74.6344 113.794 74.5483 114.672H79.1969Z" fill="white"/>
<path d="M90.5552 118.248L90.9512 119.126C90.7553 119.322 90.4971 119.469 90.1764 119.566C89.8601 119.669 89.5157 119.721 89.1434 119.721C87.5595 119.721 86.7675 118.92 86.7675 117.317V112.261H85.3213V111.253H86.7675V109.496L87.9899 109.289V111.253H90.6671V112.261H87.9899V117.197C87.9899 118.151 88.4031 118.627 89.2295 118.627C89.6814 118.627 90.0731 118.502 90.4002 118.248H90.5552Z" fill="white"/>
<path d="M92.7129 119.564V107.918H93.9353V112.44L94.0988 112.466C94.6885 111.553 95.5451 111.097 96.6641 111.097C97.6627 111.097 98.3858 111.353 98.8335 111.863C99.2854 112.376 99.5135 113.16 99.5135 114.215V119.564H98.2825V114.249C98.2825 113.745 98.2158 113.34 98.0845 113.035C97.9576 112.731 97.7596 112.509 97.4906 112.371C97.2258 112.234 96.8751 112.165 96.4403 112.165C95.6871 112.165 95.0824 112.41 94.624 112.897C94.1634 113.386 93.9353 114.187 93.9353 115.3V119.564H92.7129Z" fill="white"/>
<path d="M108.739 115.698H103.031C103.066 116.703 103.307 117.444 103.755 117.92C104.207 118.392 104.824 118.626 105.605 118.626C106.202 118.626 106.677 118.521 107.034 118.308C107.396 118.097 107.68 117.765 107.887 117.317H108.05L108.842 117.791C108.601 118.394 108.216 118.867 107.689 119.212C107.159 119.552 106.466 119.72 105.605 119.72C104.801 119.72 104.11 119.563 103.531 119.247C102.956 118.932 102.515 118.452 102.205 117.808C101.895 117.166 101.74 116.367 101.74 115.413C101.74 114.472 101.904 113.678 102.231 113.027C102.558 112.379 103.006 111.897 103.574 111.58C104.146 111.259 104.801 111.098 105.537 111.098C106.598 111.098 107.426 111.399 108.024 112.002C108.62 112.601 108.922 113.49 108.928 114.672C108.928 115.133 108.915 115.443 108.894 115.603L108.739 115.698ZM107.714 114.672C107.697 113.79 107.501 113.146 107.129 112.743C106.755 112.342 106.225 112.14 105.537 112.14C104.807 112.14 104.232 112.345 103.815 112.752C103.402 113.154 103.152 113.794 103.066 114.672H107.714Z" fill="white"/>
<path d="M115.526 109.649C115.262 109.649 115.046 109.57 114.881 109.408C114.719 109.242 114.64 109.036 114.64 108.788C114.64 108.536 114.719 108.329 114.881 108.168C115.046 108.002 115.262 107.918 115.526 107.918C115.785 107.918 115.993 108.002 116.155 108.168C116.32 108.329 116.404 108.536 116.404 108.788C116.404 109.036 116.32 109.242 116.155 109.408C115.993 109.57 115.785 109.649 115.526 109.649ZM113.865 123.087C113.607 123.087 113.378 123.066 113.176 123.027C112.976 122.992 112.78 122.941 112.591 122.872L112.78 121.924L112.927 121.873C113.18 121.97 113.434 122.019 113.693 122.019C114.082 122.019 114.381 121.89 114.588 121.631C114.799 121.373 114.906 121.003 114.906 120.52V111.252H116.129V120.477C116.129 121.308 115.931 121.952 115.535 122.407C115.139 122.859 114.582 123.087 113.865 123.087Z" fill="white"/>
<path d="M122.348 119.72C121.56 119.72 120.878 119.557 120.299 119.229C119.718 118.898 119.27 118.409 118.956 117.765C118.646 117.117 118.491 116.333 118.491 115.413C118.491 114.496 118.646 113.712 118.956 113.062C119.27 112.413 119.718 111.925 120.299 111.597C120.878 111.266 121.56 111.098 122.348 111.098C123.127 111.098 123.807 111.266 124.388 111.597C124.967 111.925 125.412 112.413 125.722 113.062C126.036 113.712 126.196 114.496 126.196 115.413C126.196 116.333 126.036 117.117 125.722 117.765C125.412 118.409 124.967 118.898 124.388 119.229C123.807 119.557 123.127 119.72 122.348 119.72ZM122.348 118.626C123.174 118.626 123.805 118.366 124.242 117.842C124.683 117.321 124.904 116.512 124.904 115.413C124.904 114.317 124.683 113.507 124.242 112.984C123.805 112.463 123.174 112.2 122.348 112.2C121.515 112.2 120.878 112.465 120.437 112.993C119.993 113.516 119.774 114.324 119.774 115.413C119.774 116.512 119.993 117.321 120.437 117.842C120.878 118.366 121.515 118.626 122.348 118.626Z" fill="white"/>
<path d="M131.216 119.718C130.273 119.718 129.574 119.472 129.115 118.977C128.655 118.477 128.427 117.749 128.427 116.789V111.25H129.658V116.763C129.658 118.021 130.247 118.649 131.431 118.649C132.182 118.649 132.776 118.406 133.213 117.917C133.648 117.424 133.867 116.623 133.867 115.514V111.25H135.098V119.563H133.936V118.262L133.781 118.219C133.493 118.731 133.148 119.11 132.748 119.356C132.352 119.597 131.84 119.718 131.216 119.718Z" fill="white"/>
<path d="M137.988 119.565V111.253H139.15V112.562L139.314 112.596C139.697 111.655 140.424 111.184 141.492 111.184C142.06 111.184 142.484 111.287 142.766 111.494L142.447 112.527L142.301 112.562C141.991 112.407 141.649 112.329 141.277 112.329C140.616 112.329 140.106 112.579 139.744 113.079C139.387 113.574 139.211 114.377 139.211 115.491V119.565H137.988Z" fill="white"/>
<path d="M144.402 119.565V111.253H145.564V112.562L145.728 112.596C146.004 112.11 146.352 111.739 146.778 111.485C147.209 111.227 147.734 111.098 148.354 111.098C149.352 111.098 150.075 111.354 150.523 111.864C150.975 112.377 151.203 113.161 151.203 114.216V119.565H149.972V114.25C149.972 113.746 149.905 113.342 149.774 113.036C149.647 112.732 149.449 112.51 149.18 112.373C148.915 112.235 148.565 112.166 148.13 112.166C147.377 112.166 146.772 112.416 146.313 112.915C145.853 113.411 145.625 114.205 145.625 115.301V119.565H144.402Z" fill="white"/>
<path d="M160.428 115.698H154.721C154.755 116.703 154.996 117.444 155.444 117.92C155.896 118.392 156.514 118.626 157.295 118.626C157.891 118.626 158.367 118.521 158.724 118.308C159.085 118.097 159.369 117.765 159.576 117.317H159.74L160.532 117.791C160.291 118.394 159.905 118.867 159.378 119.212C158.849 119.552 158.156 119.72 157.295 119.72C156.49 119.72 155.799 119.563 155.22 119.247C154.646 118.932 154.204 118.452 153.895 117.808C153.585 117.166 153.43 116.367 153.43 115.413C153.43 114.472 153.593 113.678 153.92 113.027C154.247 112.379 154.695 111.897 155.263 111.58C155.836 111.259 156.49 111.098 157.226 111.098C158.287 111.098 159.116 111.399 159.714 112.002C160.31 112.601 160.611 113.49 160.618 114.672C160.618 115.133 160.605 115.443 160.583 115.603L160.428 115.698ZM159.404 114.672C159.387 113.79 159.191 113.146 158.819 112.743C158.444 112.342 157.915 112.14 157.226 112.14C156.496 112.14 155.922 112.345 155.504 112.752C155.091 113.154 154.841 113.794 154.755 114.672H159.404Z" fill="white"/>
<path d="M163.032 123.086C162.75 123.086 162.485 123.062 162.24 123.017C161.999 122.969 161.792 122.905 161.62 122.819L161.844 121.845L161.982 121.802C162.102 121.858 162.251 121.908 162.429 121.949C162.612 121.994 162.799 122.018 162.989 122.018C163.327 122.018 163.604 121.97 163.824 121.88C164.048 121.794 164.237 121.643 164.392 121.432C164.551 121.225 164.698 120.936 164.831 120.57L165.124 119.761L161.792 111.25H163.118L165.726 118.029H165.873L168.404 111.25H169.66L165.95 120.863C165.737 121.397 165.498 121.824 165.236 122.147C164.977 122.474 164.67 122.711 164.315 122.862C163.957 123.01 163.531 123.086 163.032 123.086Z" fill="white"/>
<path d="M177.332 119.72C176.51 119.72 175.871 119.509 175.412 119.083C174.952 118.659 174.724 118.049 174.724 117.257C174.724 116.764 174.823 116.348 175.025 116.008C175.232 115.67 175.546 115.394 175.972 115.181C176.402 114.963 176.962 114.797 177.65 114.681C178.253 114.584 178.709 114.472 179.019 114.345C179.333 114.22 179.544 114.078 179.648 113.923C179.755 113.768 179.811 113.574 179.811 113.337C179.811 112.958 179.682 112.67 179.424 112.467C179.166 112.267 178.752 112.166 178.184 112.166C177.644 112.166 177.181 112.273 176.798 112.485C176.413 112.691 176.06 113.001 175.739 113.415H175.593L174.99 112.562C175.339 112.114 175.785 111.759 176.325 111.494C176.869 111.231 177.489 111.098 178.184 111.098C179.159 111.098 179.88 111.313 180.345 111.744C180.81 112.174 181.042 112.769 181.042 113.527V117.929C181.042 118.394 181.236 118.626 181.628 118.626C181.759 118.626 181.886 118.605 182.006 118.557L182.11 118.583L182.256 119.436C182.163 119.501 182.043 119.546 181.894 119.574C181.744 119.608 181.593 119.626 181.438 119.626C180.984 119.626 180.64 119.526 180.405 119.324C180.168 119.124 180.02 118.829 179.958 118.437L179.803 118.42C179.566 118.857 179.247 119.184 178.847 119.402C178.445 119.613 177.939 119.72 177.332 119.72ZM177.599 118.747C178.064 118.747 178.464 118.641 178.804 118.428C179.142 118.211 179.4 117.909 179.579 117.524C179.762 117.14 179.854 116.692 179.854 116.18V115.129L179.708 115.095C179.523 115.228 179.297 115.34 179.028 115.431C178.763 115.517 178.393 115.594 177.917 115.663C177.435 115.728 177.05 115.827 176.764 115.965C176.482 116.102 176.282 116.275 176.161 116.481C176.041 116.688 175.98 116.947 175.98 117.257C175.98 117.739 176.122 118.109 176.411 118.368C176.697 118.622 177.093 118.747 177.599 118.747Z" fill="white"/>
<path d="M183.941 119.565V111.253H185.104V112.562L185.267 112.596C185.543 112.11 185.891 111.739 186.317 111.485C186.748 111.227 187.273 111.098 187.893 111.098C188.891 111.098 189.614 111.354 190.062 111.864C190.514 112.377 190.742 113.161 190.742 114.216V119.565H189.511V114.25C189.511 113.746 189.444 113.342 189.313 113.036C189.186 112.732 188.988 112.51 188.719 112.373C188.454 112.235 188.104 112.166 187.669 112.166C186.916 112.166 186.311 112.416 185.852 112.915C185.392 113.411 185.164 114.205 185.164 115.301V119.565H183.941Z" fill="white"/>
<path d="M196.36 119.719C195.693 119.719 195.106 119.562 194.596 119.245C194.084 118.925 193.685 118.442 193.399 117.798C193.111 117.156 192.969 116.36 192.969 115.412C192.969 114.465 193.117 113.67 193.416 113.026C193.72 112.378 194.135 111.895 194.665 111.579C195.192 111.258 195.805 111.097 196.507 111.097C197.058 111.097 197.553 111.204 197.996 111.415C198.437 111.622 198.816 111.964 199.132 112.44L199.287 112.406V107.918H200.518V119.564H199.287V118.35L199.132 118.324C198.861 118.733 198.495 119.069 198.03 119.332C197.566 119.59 197.008 119.719 196.36 119.719ZM196.748 118.625C197.516 118.625 198.129 118.362 198.59 117.833C199.055 117.299 199.287 116.493 199.287 115.412C199.287 114.327 199.055 113.521 198.59 112.992C198.129 112.464 197.516 112.199 196.748 112.199C195.949 112.199 195.332 112.458 194.897 112.974C194.467 113.491 194.251 114.305 194.251 115.412C194.251 117.555 195.082 118.625 196.748 118.625Z" fill="white"/>
<path d="M48.8296 141.211C48.2098 141.211 47.6718 141.093 47.2198 140.858C46.7657 140.617 46.4063 140.303 46.1438 139.911L45.9802 139.945V141.056H44.7578V129.41H45.9802V133.993L46.1438 134.019C46.7743 133.067 47.6933 132.589 48.8985 132.589C49.5807 132.589 50.1768 132.748 50.689 133.062C51.199 133.379 51.595 133.861 51.877 134.51C52.1632 135.154 52.3074 135.953 52.3074 136.904C52.3074 137.852 52.1567 138.649 51.8597 139.29C51.5606 139.934 51.1495 140.417 50.6287 140.738C50.1058 141.054 49.5053 141.211 48.8296 141.211ZM48.5369 140.117C50.194 140.117 51.0247 139.047 51.0247 136.904C51.0247 135.797 50.8052 134.983 50.3705 134.467C49.9401 133.95 49.3289 133.691 48.5369 133.691C47.7557 133.691 47.1337 133.956 46.6689 134.484C46.2083 135.014 45.9802 135.819 45.9802 136.904C45.9802 137.985 46.2083 138.791 46.6689 139.325C47.1337 139.855 47.7557 140.117 48.5369 140.117Z" fill="white"/>
<path d="M54.666 141.057V132.745H55.8281V134.054L55.9917 134.088C56.3748 133.147 57.1022 132.676 58.1696 132.676C58.7378 132.676 59.1617 132.779 59.4437 132.986L59.1252 134.02L58.9788 134.054C58.6689 133.899 58.3267 133.821 57.9544 133.821C57.2937 133.821 56.7837 134.071 56.4221 134.571C56.0649 135.066 55.8884 135.869 55.8884 136.983V141.057H54.666Z" fill="white"/>
<path d="M61.6992 131.142C61.4345 131.142 61.2192 131.062 61.0535 130.9C60.8921 130.735 60.8125 130.528 60.8125 130.28C60.8125 130.028 60.8921 129.821 61.0535 129.66C61.2192 129.494 61.4345 129.41 61.6992 129.41C61.9574 129.41 62.1662 129.494 62.3276 129.66C62.4933 129.821 62.5772 130.028 62.5772 130.28C62.5772 130.528 62.4933 130.735 62.3276 130.9C62.1662 131.062 61.9574 131.142 61.6992 131.142ZM61.0794 141.056V132.744H62.3018V141.056H61.0794Z" fill="white"/>
<path d="M65.1982 141.057V132.745H66.3604V134.054L66.5239 134.089C66.7994 133.602 67.148 133.232 67.5742 132.977C68.0046 132.719 68.5297 132.59 69.1495 132.59C70.1481 132.59 70.8712 132.846 71.3188 133.356C71.7708 133.869 71.9989 134.653 71.9989 135.708V141.057H70.7679V135.743C70.7679 135.239 70.7012 134.834 70.5699 134.528C70.4429 134.224 70.2449 134.003 69.9759 133.865C69.7112 133.727 69.3604 133.658 68.9257 133.658C68.1724 133.658 67.5677 133.908 67.1093 134.407C66.6488 134.903 66.4206 135.697 66.4206 136.793V141.057H65.1982Z" fill="white"/>
<path d="M77.5908 144.578C76.2759 144.578 75.3182 144.359 74.7156 143.924C74.1173 143.486 73.8203 142.907 73.8203 142.184C73.8203 141.718 73.9602 141.348 74.2421 141.072C74.5219 140.797 74.9308 140.599 75.4645 140.478V140.314C75.2106 140.172 75.019 140.002 74.8878 139.806C74.7608 139.612 74.6984 139.38 74.6984 139.108C74.6984 138.788 74.7974 138.527 74.9997 138.325C75.2063 138.124 75.5097 137.969 75.9122 137.859V137.704C75.004 137.228 74.552 136.453 74.552 135.379C74.552 134.834 74.6747 134.351 74.9222 133.931C75.1675 133.507 75.5183 133.178 75.9724 132.941C76.4308 132.706 76.9645 132.588 77.5736 132.588C78.273 132.588 78.8562 132.74 79.3211 133.044C79.4932 132.85 79.6224 132.639 79.7085 132.415C79.7988 132.191 79.8569 131.939 79.8806 131.657L80.0442 131.562L81.0514 131.804C80.9997 132.23 80.8706 132.588 80.664 132.88C80.4617 133.169 80.1776 133.406 79.8118 133.595V133.759C80.0743 133.966 80.2702 134.213 80.3971 134.5C80.5284 134.782 80.5951 135.111 80.5951 135.49C80.5951 136.014 80.4681 136.485 80.2163 136.903C79.9624 137.317 79.6073 137.644 79.1489 137.885C78.6948 138.122 78.1697 138.238 77.5736 138.238C77.5047 138.238 77.3777 138.234 77.1948 138.221C76.9925 138.21 76.8462 138.204 76.7558 138.204C76.4911 138.204 76.2823 138.273 76.1274 138.411C75.9724 138.548 75.8949 138.721 75.8949 138.927C75.8949 139.192 75.9767 139.388 76.1446 139.513C76.3167 139.634 76.5944 139.701 76.9796 139.711L78.9423 139.78C79.7902 139.81 80.4186 140.009 80.8275 140.375C81.2343 140.736 81.4387 141.253 81.4387 141.925C81.4387 142.418 81.3053 142.864 81.0428 143.26C80.778 143.661 80.3562 143.98 79.7773 144.216C79.2027 144.458 78.4731 144.578 77.5908 144.578ZM77.5736 137.187C78.1589 137.187 78.6109 137.037 78.9337 136.731C79.2544 136.421 79.4158 135.99 79.4158 135.439C79.4158 134.866 79.2544 134.422 78.9337 134.112C78.6173 133.798 78.1632 133.638 77.5736 133.638C76.9817 133.638 76.5277 133.794 76.2134 134.104C75.9035 134.414 75.7486 134.86 75.7486 135.439C75.7486 135.997 75.9035 136.427 76.2134 136.731C76.5277 137.037 76.9817 137.187 77.5736 137.187ZM77.5908 143.527C78.1977 143.527 78.697 143.458 79.0886 143.321C79.4782 143.187 79.7558 143.011 79.9237 142.787C80.0958 142.563 80.1819 142.313 80.1819 142.037C80.1819 141.789 80.1346 141.589 80.0442 141.434C79.9516 141.283 79.8031 141.171 79.5965 141.098C79.3899 141.025 79.108 140.978 78.7529 140.96L76.8935 140.866H76.6353C75.5958 140.883 75.0771 141.288 75.0771 142.08C75.0771 143.045 75.9143 143.527 77.5908 143.527Z" fill="white"/>
<path d="M91.1167 141.211C90.4969 141.211 89.9589 141.093 89.5069 140.858C89.0528 140.617 88.6934 140.303 88.4309 139.911L88.2673 139.945V141.056H87.0449V129.41H88.2673V133.993L88.4309 134.019C89.0614 133.067 89.9804 132.589 91.1856 132.589C91.8678 132.589 92.4639 132.748 92.9761 133.062C93.4862 133.379 93.8821 133.861 94.1641 134.51C94.4503 135.154 94.5945 135.953 94.5945 136.904C94.5945 137.852 94.4438 138.649 94.1468 139.29C93.8477 139.934 93.4367 140.417 92.9158 140.738C92.3929 141.054 91.7925 141.211 91.1167 141.211ZM90.824 140.117C92.4811 140.117 93.3118 139.047 93.3118 136.904C93.3118 135.797 93.0923 134.983 92.6576 134.467C92.2272 133.95 91.616 133.691 90.824 133.691C90.0428 133.691 89.4208 133.956 88.956 134.484C88.4954 135.014 88.2673 135.819 88.2673 136.904C88.2673 137.985 88.4954 138.791 88.956 139.325C89.4208 139.855 90.0428 140.117 90.824 140.117Z" fill="white"/>
<path d="M98.9326 141.212C98.1105 141.212 97.4713 141.001 97.0129 140.575C96.5523 140.151 96.3242 139.541 96.3242 138.749C96.3242 138.256 96.4232 137.84 96.6255 137.5C96.8321 137.162 97.1463 136.886 97.5724 136.673C98.0029 136.455 98.5624 136.29 99.2511 136.173C99.8537 136.076 100.31 135.964 100.62 135.837C100.934 135.712 101.145 135.57 101.248 135.415C101.356 135.26 101.412 135.066 101.412 134.829C101.412 134.45 101.283 134.162 101.024 133.959C100.766 133.759 100.353 133.658 99.7848 133.658C99.2446 133.658 98.7819 133.766 98.3988 133.977C98.0136 134.183 97.6607 134.494 97.34 134.907H97.1937L96.5911 134.054C96.9397 133.606 97.3852 133.251 97.9254 132.986C98.4699 132.723 99.0897 132.59 99.7848 132.59C100.76 132.59 101.481 132.805 101.946 133.236C102.41 133.667 102.643 134.261 102.643 135.019V139.421C102.643 139.886 102.836 140.118 103.228 140.118C103.359 140.118 103.486 140.097 103.607 140.05L103.71 140.075L103.857 140.928C103.764 140.993 103.644 141.038 103.495 141.066C103.344 141.1 103.194 141.118 103.039 141.118C102.585 141.118 102.24 141.019 102.006 140.816C101.769 140.616 101.621 140.321 101.558 139.929L101.403 139.912C101.166 140.349 100.848 140.676 100.448 140.894C100.045 141.105 99.5395 141.212 98.9326 141.212ZM99.1994 140.239C99.6643 140.239 100.065 140.134 100.405 139.92C100.742 139.703 101.001 139.401 101.179 139.016C101.362 138.633 101.455 138.185 101.455 137.672V136.621L101.308 136.587C101.123 136.72 100.897 136.832 100.628 136.923C100.364 137.009 99.9935 137.086 99.5179 137.155C99.0359 137.22 98.6506 137.319 98.3644 137.457C98.0825 137.595 97.8823 137.767 97.7618 137.974C97.6413 138.18 97.581 138.439 97.581 138.749C97.581 139.231 97.7231 139.602 98.0115 139.86C98.2977 140.114 98.6937 140.239 99.1994 140.239Z" fill="white"/>
<path d="M108.865 141.212C108.129 141.212 107.471 141.047 106.885 140.713C106.304 140.381 105.846 139.89 105.508 139.24C105.175 138.592 105.009 137.814 105.009 136.905C105.009 135.999 105.175 135.221 105.508 134.571C105.846 133.916 106.304 133.423 106.885 133.089C107.471 132.758 108.129 132.59 108.865 132.59C109.743 132.59 110.441 132.758 110.957 133.089C111.478 133.417 111.855 133.86 112.085 134.416L111.25 135.019H111.095C110.871 134.56 110.581 134.224 110.225 134.011C109.875 133.8 109.421 133.692 108.865 133.692C108.349 133.692 107.897 133.813 107.514 134.054C107.129 134.295 106.827 134.657 106.61 135.14C106.397 135.622 106.291 136.212 106.291 136.905C106.291 137.601 106.399 138.189 106.619 138.671C106.836 139.149 107.135 139.511 107.514 139.757C107.897 139.998 108.349 140.118 108.865 140.118C109.438 140.118 109.916 139.989 110.294 139.731C110.673 139.468 110.97 139.055 111.19 138.49H111.345L112.154 138.964C111.934 139.66 111.547 140.209 110.992 140.609C110.441 141.012 109.73 141.212 108.865 141.212Z" fill="white"/>
<path d="M114.103 141.056V129.41H115.325V136.215H115.532L118.622 132.744H119.905V132.925L116.616 136.646L120.223 140.867V141.056H118.854L115.532 137.214H115.325V141.056H114.103Z" fill="white"/>
<path d="M129.772 139.74L130.168 140.618C129.972 140.814 129.714 140.961 129.393 141.058C129.077 141.161 128.733 141.213 128.36 141.213C126.776 141.213 125.984 140.412 125.984 138.81V133.753H124.538V132.745H125.984V130.988L127.207 130.781V132.745H129.884V133.753H127.207V138.689C127.207 139.643 127.62 140.119 128.446 140.119C128.898 140.119 129.29 139.994 129.617 139.74H129.772Z" fill="white"/>
<path d="M131.93 141.056V129.41H133.152V133.933L133.316 133.958C133.905 133.045 134.762 132.589 135.881 132.589C136.88 132.589 137.603 132.845 138.05 133.355C138.502 133.868 138.73 134.652 138.73 135.707V141.056H137.499V135.741C137.499 135.238 137.433 134.833 137.301 134.527C137.174 134.223 136.976 134.001 136.707 133.864C136.443 133.726 136.092 133.657 135.657 133.657C134.904 133.657 134.299 133.902 133.841 134.389C133.38 134.878 133.152 135.679 133.152 136.792V141.056H131.93Z" fill="white"/>
<path d="M147.956 137.19H142.248C142.283 138.195 142.524 138.936 142.971 139.412C143.423 139.884 144.041 140.118 144.822 140.118C145.418 140.118 145.894 140.013 146.251 139.8C146.613 139.589 146.897 139.257 147.103 138.809H147.267L148.059 139.283C147.818 139.886 147.433 140.36 146.905 140.704C146.376 141.044 145.683 141.212 144.822 141.212C144.017 141.212 143.326 141.055 142.748 140.739C142.173 140.424 141.732 139.944 141.422 139.3C141.112 138.658 140.957 137.859 140.957 136.905C140.957 135.964 141.121 135.17 141.448 134.519C141.775 133.871 142.222 133.389 142.791 133.072C143.363 132.751 144.017 132.59 144.753 132.59C145.814 132.59 146.643 132.891 147.241 133.494C147.837 134.093 148.139 134.982 148.145 136.165C148.145 136.626 148.132 136.936 148.111 137.095L147.956 137.19ZM146.931 136.165C146.914 135.282 146.718 134.638 146.346 134.235C145.971 133.835 145.442 133.632 144.753 133.632C144.024 133.632 143.449 133.837 143.032 134.244C142.618 134.646 142.369 135.286 142.283 136.165H146.931Z" fill="white"/>
<path d="M156.792 141.055H155.243L153.211 132.742H154.425L156 139.625H156.155L158.092 132.742H159.375L161.372 139.625H161.527L163.076 132.742H164.247L162.241 141.055H160.683L158.781 134.603H158.626L156.792 141.055Z" fill="white"/>
<path d="M168.081 141.212C167.259 141.212 166.62 141.001 166.161 140.575C165.701 140.151 165.473 139.541 165.473 138.749C165.473 138.256 165.572 137.84 165.774 137.5C165.981 137.162 166.295 136.886 166.721 136.673C167.151 136.455 167.711 136.29 168.4 136.173C169.002 136.076 169.458 135.964 169.768 135.837C170.082 135.712 170.293 135.57 170.397 135.415C170.504 135.26 170.56 135.066 170.56 134.829C170.56 134.45 170.431 134.162 170.173 133.959C169.915 133.759 169.501 133.658 168.933 133.658C168.393 133.658 167.93 133.766 167.547 133.977C167.162 134.183 166.809 134.494 166.488 134.907H166.342L165.74 134.054C166.088 133.606 166.534 133.251 167.074 132.986C167.618 132.723 168.238 132.59 168.933 132.59C169.908 132.59 170.629 132.805 171.094 133.236C171.559 133.667 171.791 134.261 171.791 135.019V139.421C171.791 139.886 171.985 140.118 172.377 140.118C172.508 140.118 172.635 140.097 172.755 140.05L172.859 140.075L173.005 140.928C172.912 140.993 172.792 141.038 172.643 141.066C172.493 141.1 172.342 141.118 172.187 141.118C171.733 141.118 171.389 141.019 171.154 140.816C170.917 140.616 170.769 140.321 170.707 139.929L170.552 139.912C170.315 140.349 169.996 140.676 169.596 140.894C169.194 141.105 168.688 141.212 168.081 141.212ZM168.348 140.239C168.813 140.239 169.213 140.134 169.553 139.92C169.891 139.703 170.149 139.401 170.328 139.016C170.511 138.633 170.603 138.185 170.603 137.672V136.621L170.457 136.587C170.272 136.72 170.046 136.832 169.777 136.923C169.512 137.009 169.142 137.086 168.666 137.155C168.184 137.22 167.799 137.319 167.513 137.457C167.231 137.595 167.031 137.767 166.91 137.974C166.79 138.18 166.729 138.439 166.729 138.749C166.729 139.231 166.872 139.602 167.16 139.86C167.446 140.114 167.842 140.239 168.348 140.239Z" fill="white"/>
<path d="M178.759 139.74L179.155 140.618C178.959 140.814 178.701 140.961 178.381 141.058C178.064 141.161 177.72 141.213 177.348 141.213C175.764 141.213 174.972 140.412 174.972 138.81V133.753H173.525V132.745H174.972V130.988L176.194 130.781V132.745H178.871V133.753H176.194V138.689C176.194 139.643 176.607 140.119 177.434 140.119C177.886 140.119 178.277 139.994 178.604 139.74H178.759Z" fill="white"/>
<path d="M187.284 137.19H181.576C181.611 138.195 181.852 138.936 182.3 139.412C182.751 139.884 183.369 140.118 184.15 140.118C184.746 140.118 185.222 140.013 185.579 139.8C185.941 139.589 186.225 139.257 186.432 138.809H186.595L187.387 139.283C187.146 139.886 186.761 140.36 186.234 140.704C185.704 141.044 185.011 141.212 184.15 141.212C183.345 141.212 182.655 141.055 182.076 140.739C181.501 140.424 181.06 139.944 180.75 139.3C180.44 138.658 180.285 137.859 180.285 136.905C180.285 135.964 180.449 135.17 180.776 134.519C181.103 133.871 181.551 133.389 182.119 133.072C182.691 132.751 183.345 132.59 184.081 132.59C185.142 132.59 185.971 132.891 186.569 133.494C187.165 134.093 187.467 134.982 187.473 136.165C187.473 136.626 187.46 136.936 187.439 137.095L187.284 137.19ZM186.259 136.165C186.242 135.282 186.046 134.638 185.674 134.235C185.3 133.835 184.77 133.632 184.081 133.632C183.352 133.632 182.777 133.837 182.36 134.244C181.947 134.646 181.697 135.286 181.611 136.165H186.259Z" fill="white"/>
<path d="M189.672 141.057V132.745H190.834V134.054L190.998 134.088C191.381 133.147 192.108 132.676 193.175 132.676C193.744 132.676 194.168 132.779 194.45 132.986L194.131 134.02L193.985 134.054C193.675 133.899 193.333 133.821 192.96 133.821C192.3 133.821 191.79 134.071 191.428 134.571C191.071 135.066 190.894 135.869 190.894 136.983V141.057H189.672Z" fill="white"/>
<path d="M195.029 141.135C194.741 141.135 194.515 141.055 194.349 140.893C194.188 140.734 194.108 140.519 194.108 140.247C194.108 139.989 194.188 139.778 194.349 139.61C194.515 139.438 194.741 139.352 195.029 139.352C195.322 139.352 195.55 139.433 195.718 139.593C195.884 139.754 195.968 139.97 195.968 140.239C195.968 140.504 195.882 140.719 195.71 140.885C195.542 141.053 195.316 141.135 195.029 141.135Z" fill="white"/>
<path d="M228.139 115.629H230.616V118.11H228.139M233.095 115.629H235.572V118.11H233.095M238.051 115.629H240.528V118.11H238.051M243.008 115.629H245.487V118.11H243.008M247.964 115.629H250.443V118.11H247.964M252.92 115.629H255.399V118.11H252.92M257.876 115.629H260.356V118.11H257.876M262.833 115.629H265.312V118.11H262.833M267.791 115.629H270.268V118.11H267.791M272.747 115.629H275.224V118.11H272.747M277.704 115.629H280.181V118.11H277.704M282.66 115.629H285.137V118.11H282.66M287.616 115.629H290.093V118.11H287.616M292.573 115.629H295.052V118.11H292.573M297.529 115.629H300.008V118.11H297.529M302.485 115.629H304.964V118.11H302.485M307.441 115.629H309.921V118.11H307.441M312.398 115.629H314.877V118.11H312.398M317.356 115.629H319.833V118.11H317.356M322.312 115.629H324.789V118.11H322.312M327.269 115.629H329.746V118.11H327.269M332.225 115.629H334.702V118.11H332.225M337.181 115.629H339.66V118.11H337.181M342.137 115.629H344.617V118.11H342.137M347.094 115.629H349.573V118.11H347.094M352.05 115.629H354.529V118.11H352.05M357.006 115.629H359.486V118.11H357.006M361.965 115.629H364.442V118.11H361.965M366.921 115.629H369.398V118.11H366.921M371.877 115.629H374.354V118.11H371.877M376.834 115.629H379.311V118.11H376.834M381.79 115.629H384.269V118.11H381.79M386.746 115.629H389.225V118.11H386.746M391.702 115.629H394.182V118.11H391.702M396.659 115.629H399.138V118.11H396.659M401.615 115.629H404.094V118.11H401.615M406.573 115.629H409.051V118.11H406.573M411.53 115.629H414.007V118.11H411.53M416.486 115.629H418.963V118.11H416.486M421.442 115.629H423.919V118.11H421.442M426.399 115.629H428.878V118.11H426.399M431.355 115.629H433.834V118.11H431.355" fill="white"/>
<path d="M429.892 113.148L434.848 116.868L429.892 120.587" fill="white"/>
<path d="M480.791 108.912C479.999 108.912 479.296 108.813 478.682 108.619C478.067 108.425 477.554 108.169 477.141 107.852C476.728 107.538 476.412 107.187 476.194 106.802L477.434 105.294H477.632C477.976 105.807 478.411 106.214 478.94 106.517C479.468 106.817 480.085 106.965 480.791 106.965C481.394 106.965 481.846 106.84 482.151 106.586C482.461 106.328 482.616 105.975 482.616 105.527C482.616 105.257 482.565 105.031 482.461 104.846C482.362 104.663 482.199 104.508 481.971 104.381C481.747 104.25 481.439 104.138 481.049 104.045L479.586 103.709C478.557 103.474 477.791 103.087 477.288 102.546C476.788 102.001 476.539 101.295 476.539 100.427C476.539 99.779 476.698 99.2104 477.021 98.7216C477.348 98.2349 477.817 97.8559 478.433 97.5845C479.046 97.3154 479.784 97.1797 480.645 97.1797C481.523 97.1797 482.274 97.296 482.9 97.5242C483.524 97.7547 484.054 98.11 484.484 98.5924L483.374 100.117H483.176C482.853 99.779 482.483 99.527 482.065 99.359C481.652 99.1868 481.179 99.1006 480.645 99.1006C480.025 99.1006 479.554 99.2126 479.233 99.4366C478.91 99.6562 478.751 99.9577 478.751 100.341C478.751 100.699 478.863 100.983 479.087 101.194C479.311 101.407 479.7 101.573 480.257 101.693L481.755 102.004C482.862 102.24 483.666 102.639 484.166 103.201C484.665 103.759 484.915 104.489 484.915 105.389C484.915 106.102 484.76 106.722 484.45 107.249C484.144 107.779 483.684 108.188 483.064 108.481C482.448 108.768 481.691 108.912 480.791 108.912Z" fill="white"/>
<path d="M490.54 108.909C489.707 108.909 488.973 108.737 488.336 108.392C487.699 108.048 487.2 107.54 486.838 106.868C486.481 106.196 486.305 105.39 486.305 104.447C486.305 103.5 486.481 102.69 486.838 102.018C487.2 101.346 487.695 100.838 488.328 100.493C488.965 100.149 489.69 99.9766 490.506 99.9766C492.318 99.9766 493.48 100.636 493.992 101.949L492.511 103.009H492.348C492.169 102.608 491.937 102.309 491.651 102.113C491.369 101.913 490.988 101.811 490.506 101.811C489.879 101.811 489.391 102.027 489.042 102.457C488.698 102.888 488.526 103.551 488.526 104.447C488.526 105.332 488.7 105.993 489.051 106.428C489.406 106.859 489.903 107.075 490.54 107.075C491.009 107.075 491.405 106.95 491.728 106.695C492.055 106.444 492.29 106.082 492.434 105.61L492.597 105.593L494.13 106.437C493.91 107.167 493.506 107.761 492.916 108.22C492.324 108.681 491.532 108.909 490.54 108.909Z" fill="white"/>
<path d="M499.397 108.909C498.553 108.909 497.813 108.737 497.176 108.392C496.539 108.048 496.044 107.544 495.695 106.876C495.344 106.204 495.17 105.395 495.17 104.447C495.17 103.5 495.344 102.69 495.695 102.018C496.044 101.346 496.539 100.838 497.176 100.493C497.813 100.149 498.553 99.9766 499.397 99.9766C500.234 99.9766 500.972 100.149 501.609 100.493C502.246 100.838 502.739 101.346 503.09 102.018C503.445 102.69 503.623 103.5 503.623 104.447C503.623 105.395 503.445 106.204 503.09 106.876C502.739 107.544 502.246 108.048 501.609 108.392C500.972 108.737 500.234 108.909 499.397 108.909ZM499.397 107.075C500.727 107.075 501.394 106.2 501.394 104.447C501.394 103.534 501.222 102.869 500.877 102.449C500.537 102.025 500.044 101.811 499.397 101.811C498.058 101.811 497.391 102.69 497.391 104.447C497.391 106.2 498.058 107.075 499.397 107.075Z" fill="white"/>
<path d="M505.629 108.745V100.14H507.729V101.415L507.893 101.449C508.1 100.973 508.371 100.622 508.711 100.398C509.049 100.174 509.46 100.062 509.942 100.062C510.428 100.062 510.798 100.146 511.052 100.312L510.691 102.173L510.527 102.207C510.383 102.151 510.245 102.11 510.114 102.087C509.987 102.059 509.83 102.044 509.64 102.044C509.038 102.044 508.577 102.257 508.263 102.681C507.947 103.108 507.79 103.788 507.79 104.723V108.745H505.629Z" fill="white"/>
<path d="M519.403 104.93H513.877C513.939 105.683 514.152 106.228 514.514 106.566C514.88 106.907 515.377 107.075 516.003 107.075C516.496 107.075 516.894 106.984 517.2 106.799C517.51 106.616 517.759 106.338 517.949 105.963H518.112L519.55 106.885C519.268 107.488 518.844 107.977 518.276 108.349C517.708 108.724 516.95 108.909 516.003 108.909C515.112 108.909 514.344 108.741 513.696 108.401C513.053 108.063 512.555 107.561 512.207 106.894C511.856 106.222 511.682 105.408 511.682 104.447C511.682 103.472 511.865 102.647 512.233 101.975C512.598 101.303 513.096 100.804 513.722 100.476C514.352 100.145 515.06 99.9766 515.848 99.9766C517.064 99.9766 517.996 100.302 518.646 100.95C519.294 101.594 519.619 102.539 519.619 103.784C519.619 104.238 519.601 104.589 519.567 104.835L519.403 104.93ZM517.553 103.534C517.529 102.879 517.374 102.404 517.088 102.104C516.806 101.807 516.393 101.656 515.848 101.656C514.757 101.656 514.118 102.283 513.928 103.534H517.553Z" fill="white"/>
<path d="M522.45 108.815C522.174 108.815 521.929 108.759 521.718 108.651C521.511 108.537 521.35 108.382 521.236 108.186C521.126 107.986 521.072 107.762 521.072 107.514C521.072 107.262 521.126 107.039 521.236 106.843C521.35 106.649 521.511 106.494 521.718 106.377C521.929 106.263 522.174 106.205 522.45 106.205C522.729 106.205 522.977 106.263 523.19 106.377C523.401 106.487 523.562 106.642 523.672 106.843C523.786 107.039 523.844 107.26 523.844 107.506C523.844 107.885 523.717 108.199 523.465 108.445C523.211 108.692 522.874 108.815 522.45 108.815ZM522.45 102.665C522.174 102.665 521.929 102.611 521.718 102.501C521.511 102.387 521.35 102.232 521.236 102.036C521.126 101.836 521.072 101.612 521.072 101.364C521.072 101.112 521.126 100.888 521.236 100.692C521.35 100.498 521.511 100.343 521.718 100.227C521.929 100.113 522.174 100.055 522.45 100.055C522.729 100.055 522.977 100.113 523.19 100.227C523.401 100.337 523.562 100.492 523.672 100.692C523.786 100.888 523.844 101.11 523.844 101.355C523.844 101.734 523.717 102.049 523.465 102.294C523.211 102.542 522.874 102.665 522.45 102.665Z" fill="white"/>
<path d="M530.148 108.745V97.3398H534.289C535.051 97.3398 535.692 97.4669 536.209 97.7189C536.73 97.973 537.121 98.3283 537.379 98.787C537.642 99.2478 537.775 99.7927 537.775 100.424C537.775 101.13 537.597 101.714 537.242 102.172C536.891 102.633 536.34 102.978 535.589 103.206V103.37C535.961 103.514 536.263 103.744 536.493 104.059C536.727 104.369 536.945 104.834 537.147 105.454L538.197 108.745H536.82L535.675 105.256C535.542 104.849 535.387 104.528 535.21 104.291C535.032 104.057 534.808 103.886 534.539 103.783C534.268 103.68 533.928 103.628 533.514 103.628H531.491V108.745H530.148ZM534.263 102.491C534.973 102.491 535.503 102.327 535.847 102C536.196 101.668 536.372 101.162 536.372 100.484C536.372 99.8078 536.196 99.3038 535.847 98.9765C535.503 98.6449 534.973 98.4769 534.263 98.4769H531.491V102.491H534.263Z" fill="white"/>
<path d="M546.952 104.731H541.038C541.077 105.778 541.331 106.547 541.796 107.04C542.261 107.529 542.898 107.772 543.707 107.772C544.32 107.772 544.813 107.665 545.188 107.445C545.56 107.227 545.855 106.883 546.074 106.411H546.238L547.064 106.902C546.81 107.529 546.41 108.02 545.859 108.375C545.312 108.733 544.596 108.909 543.707 108.909C542.874 108.909 542.16 108.746 541.564 108.418C540.965 108.091 540.507 107.596 540.186 106.928C539.863 106.263 539.704 105.436 539.704 104.447C539.704 103.472 539.872 102.647 540.212 101.975C540.55 101.303 541.015 100.804 541.607 100.476C542.196 100.145 542.872 99.9766 543.63 99.9766C544.731 99.9766 545.592 100.287 546.212 100.907C546.832 101.527 547.144 102.449 547.15 103.672C547.15 104.154 547.137 104.48 547.116 104.645L546.952 104.731ZM545.894 103.672C545.87 102.759 545.665 102.096 545.282 101.682C544.897 101.264 544.346 101.053 543.63 101.053C542.876 101.053 542.287 101.264 541.856 101.682C541.426 102.102 541.163 102.765 541.073 103.672H545.894Z" fill="white"/>
<path d="M551.851 108.909C551.304 108.909 550.803 108.836 550.344 108.694C549.884 108.552 549.496 108.356 549.182 108.108C548.866 107.856 548.642 107.574 548.511 107.264L549.26 106.48H549.423C549.703 106.911 550.039 107.236 550.43 107.454C550.826 107.667 551.3 107.772 551.851 107.772C552.481 107.772 552.961 107.649 553.288 107.402C553.62 107.156 553.788 106.812 553.788 106.368C553.788 106.03 553.687 105.752 553.486 105.533C553.284 105.309 552.961 105.143 552.514 105.033L551.067 104.671C550.293 104.488 549.727 104.193 549.372 103.784C549.014 103.377 548.838 102.875 548.838 102.277C548.838 101.811 548.954 101.406 549.191 101.062C549.432 100.713 549.776 100.446 550.224 100.261C550.676 100.071 551.214 99.9766 551.834 99.9766C552.619 99.9766 553.239 100.089 553.693 100.313C554.151 100.532 554.506 100.838 554.76 101.234L554.046 101.932H553.891C553.616 101.618 553.314 101.389 552.987 101.251C552.664 101.109 552.281 101.036 551.834 101.036C551.265 101.036 550.829 101.139 550.525 101.346C550.226 101.549 550.077 101.841 550.077 102.225C550.077 102.569 550.183 102.851 550.396 103.069C550.607 103.282 550.981 103.452 551.515 103.577L552.935 103.922C553.687 104.101 554.229 104.396 554.562 104.809C554.894 105.218 555.062 105.731 555.062 106.351C555.062 106.857 554.941 107.303 554.7 107.686C554.459 108.072 554.098 108.373 553.616 108.591C553.133 108.802 552.544 108.909 551.851 108.909Z" fill="white"/>
<path d="M558.012 98.4792C557.741 98.4792 557.521 98.3974 557.349 98.2294C557.181 98.0571 557.1 97.8418 557.1 97.5834C557.1 97.3249 557.181 97.1139 557.349 96.9459C557.521 96.7736 557.741 96.6875 558.012 96.6875C558.281 96.6875 558.498 96.7736 558.666 96.9459C558.839 97.1139 558.925 97.3249 558.925 97.5834C558.925 97.8418 558.839 98.0571 558.666 98.2294C558.498 98.3974 558.281 98.4792 558.012 98.4792ZM557.375 108.747V100.142H558.649V108.747H557.375Z" fill="white"/>
<path d="M563.568 108.911C562.959 108.911 562.479 108.739 562.131 108.394C561.78 108.049 561.605 107.533 561.605 106.843V96.6875H562.88V106.757C562.88 107.119 562.948 107.382 563.086 107.541C563.224 107.696 563.439 107.774 563.732 107.774C563.904 107.774 564.08 107.746 564.265 107.688L564.377 107.713L564.524 108.713C564.431 108.775 564.296 108.825 564.119 108.859C563.947 108.894 563.762 108.911 563.568 108.911Z" fill="white"/>
<path d="M566.954 98.4792C566.683 98.4792 566.464 98.3974 566.292 98.2294C566.124 98.0571 566.042 97.8418 566.042 97.5834C566.042 97.3249 566.124 97.1139 566.292 96.9459C566.464 96.7736 566.683 96.6875 566.954 96.6875C567.223 96.6875 567.441 96.7736 567.609 96.9459C567.781 97.1139 567.867 97.3249 567.867 97.5834C567.867 97.8418 567.781 98.0571 567.609 98.2294C567.441 98.3974 567.223 98.4792 566.954 98.4792ZM566.317 108.747V100.142H567.592V108.747H566.317Z" fill="white"/>
<path d="M577.28 104.731H571.366C571.404 105.778 571.658 106.547 572.123 107.04C572.588 107.529 573.225 107.772 574.034 107.772C574.648 107.772 575.14 107.665 575.515 107.445C575.887 107.227 576.182 106.883 576.401 106.411H576.565L577.391 106.902C577.137 107.529 576.737 108.02 576.186 108.375C575.64 108.733 574.923 108.909 574.034 108.909C573.201 108.909 572.487 108.746 571.891 108.418C571.292 108.091 570.834 107.596 570.513 106.928C570.191 106.263 570.031 105.436 570.031 104.447C570.031 103.472 570.199 102.647 570.539 101.975C570.877 101.303 571.342 100.804 571.934 100.476C572.523 100.145 573.199 99.9766 573.957 99.9766C575.059 99.9766 575.919 100.287 576.539 100.907C577.159 101.527 577.471 102.449 577.478 103.672C577.478 104.154 577.465 104.48 577.443 104.645L577.28 104.731ZM576.221 103.672C576.197 102.759 575.993 102.096 575.609 101.682C575.224 101.264 574.673 101.053 573.957 101.053C573.203 101.053 572.614 101.264 572.183 101.682C571.753 102.102 571.49 102.765 571.4 103.672H576.221Z" fill="white"/>
<path d="M579.751 108.746V100.14H580.956V101.493L581.12 101.527C581.406 101.023 581.77 100.638 582.213 100.373C582.661 100.11 583.203 99.9766 583.84 99.9766C584.877 99.9766 585.631 100.241 586.095 100.769C586.56 101.299 586.793 102.111 586.793 103.207V108.746H585.519V103.241C585.519 102.72 585.452 102.3 585.321 101.984C585.187 101.669 584.981 101.441 584.701 101.303C584.425 101.161 584.059 101.088 583.608 101.088C582.833 101.088 582.207 101.344 581.731 101.854C581.26 102.367 581.025 103.19 581.025 104.327V108.746H579.751Z" fill="white"/>
<path d="M593.086 108.909C592.329 108.909 591.649 108.737 591.046 108.392C590.443 108.048 589.966 107.54 589.617 106.868C589.273 106.192 589.101 105.384 589.101 104.447C589.101 103.506 589.273 102.699 589.617 102.027C589.966 101.35 590.443 100.838 591.046 100.493C591.649 100.149 592.329 99.9766 593.086 99.9766C593.999 99.9766 594.722 100.149 595.256 100.493C595.794 100.834 596.185 101.29 596.426 101.863L595.557 102.492H595.402C595.172 102.016 594.873 101.669 594.507 101.45C594.139 101.226 593.665 101.114 593.086 101.114C592.557 101.114 592.092 101.241 591.692 101.493C591.289 101.74 590.977 102.113 590.753 102.612C590.534 103.112 590.426 103.724 590.426 104.447C590.426 105.167 590.538 105.774 590.762 106.273C590.986 106.769 591.296 107.141 591.692 107.393C592.092 107.647 592.557 107.772 593.086 107.772C593.689 107.772 594.184 107.639 594.576 107.367C594.965 107.098 595.273 106.67 595.497 106.084H595.66L596.495 106.575C596.271 107.298 595.871 107.871 595.299 108.289C594.724 108.703 593.986 108.909 593.086 108.909Z" fill="white"/>
<path d="M605.213 104.731H599.299C599.338 105.778 599.592 106.547 600.057 107.04C600.522 107.529 601.159 107.772 601.968 107.772C602.581 107.772 603.074 107.665 603.448 107.445C603.821 107.227 604.116 106.883 604.335 106.411H604.499L605.325 106.902C605.071 107.529 604.671 108.02 604.12 108.375C603.573 108.733 602.857 108.909 601.968 108.909C601.135 108.909 600.42 108.746 599.824 108.418C599.226 108.091 598.768 107.596 598.447 106.928C598.124 106.263 597.965 105.436 597.965 104.447C597.965 103.472 598.133 102.647 598.473 101.975C598.811 101.303 599.275 100.804 599.867 100.476C600.457 100.145 601.133 99.9766 601.89 99.9766C602.992 99.9766 603.853 100.287 604.473 100.907C605.093 101.527 605.405 102.449 605.411 103.672C605.411 104.154 605.398 104.48 605.377 104.645L605.213 104.731ZM604.154 103.672C604.131 102.759 603.926 102.096 603.543 101.682C603.158 101.264 602.607 101.053 601.89 101.053C601.137 101.053 600.547 101.264 600.117 101.682C599.687 102.102 599.424 102.765 599.334 103.672H604.154Z" fill="white"/>
<path d="M608.287 108.825C607.988 108.825 607.754 108.743 607.581 108.575C607.409 108.409 607.323 108.187 607.323 107.911C607.323 107.642 607.409 107.42 607.581 107.248C607.754 107.072 607.988 106.981 608.287 106.981C608.584 106.981 608.821 107.065 608.993 107.231C609.165 107.399 609.252 107.619 609.252 107.894C609.252 108.17 609.161 108.394 608.985 108.566C608.812 108.738 608.58 108.825 608.287 108.825ZM608.287 101.89C607.988 101.89 607.754 101.808 607.581 101.64C607.409 101.475 607.323 101.253 607.323 100.977C607.323 100.708 607.409 100.486 607.581 100.314C607.754 100.137 607.988 100.047 608.287 100.047C608.584 100.047 608.821 100.131 608.993 100.297C609.165 100.465 609.252 100.684 609.252 100.96C609.252 101.236 609.161 101.46 608.985 101.632C608.812 101.804 608.58 101.89 608.287 101.89Z" fill="white"/>
<path d="M621.439 108.745H620.165V106.023H614.828V104.946L619.855 97.3398H621.439V104.946H623.411V106.023H621.439V108.745ZM616.403 104.782L616.472 104.946H620.165V99.1919L619.985 99.166L616.403 104.782Z" fill="white"/>
<path d="M481.553 119.66C482.339 119.66 483.01 119.802 483.567 120.082C484.129 120.364 484.557 120.767 484.85 121.288C485.147 121.812 485.298 122.425 485.298 123.132C485.298 123.838 485.147 124.454 484.85 124.975C484.557 125.492 484.129 125.895 483.567 126.181C483.01 126.463 482.339 126.603 481.553 126.603H478.816V131.065H477.473V119.66H481.553ZM481.51 125.457C483.098 125.457 483.895 124.682 483.895 123.132C483.895 121.577 483.098 120.797 481.51 120.797H478.816V125.457H481.51Z" fill="white"/>
<path d="M487.415 131.066V122.46H488.62V123.813L488.784 123.847C489.184 122.872 489.939 122.383 491.048 122.383C491.633 122.383 492.072 122.49 492.365 122.702L492.038 123.778L491.883 123.813C491.56 123.653 491.207 123.572 490.824 123.572C490.135 123.572 489.606 123.83 489.24 124.347C488.872 124.859 488.689 125.691 488.689 126.845V131.066H487.415Z" fill="white"/>
<path d="M497.266 131.23C496.457 131.23 495.751 131.057 495.148 130.713C494.55 130.368 494.089 129.864 493.762 129.197C493.44 128.531 493.28 127.722 493.28 126.768C493.28 125.816 493.44 125.002 493.762 124.33C494.089 123.658 494.55 123.154 495.148 122.814C495.751 122.469 496.457 122.297 497.266 122.297C498.079 122.297 498.785 122.469 499.384 122.814C499.986 123.154 500.447 123.658 500.77 124.33C501.097 125.002 501.26 125.816 501.26 126.768C501.26 127.722 501.097 128.531 500.77 129.197C500.447 129.864 499.986 130.368 499.384 130.713C498.785 131.057 498.079 131.23 497.266 131.23ZM497.266 130.093C498.127 130.093 498.783 129.823 499.237 129.283C499.689 128.738 499.917 127.9 499.917 126.768C499.917 125.63 499.689 124.793 499.237 124.252C498.783 123.707 498.127 123.434 497.266 123.434C496.409 123.434 495.753 123.707 495.295 124.252C494.834 124.793 494.606 125.63 494.606 126.768C494.606 127.9 494.834 128.738 495.295 129.283C495.753 129.823 496.409 130.093 497.266 130.093Z" fill="white"/>
<path d="M507.919 131.231C507.282 131.231 506.727 131.106 506.258 130.861C505.787 130.615 505.414 130.288 505.139 129.879L504.975 129.913V131.067H503.701V119.008H504.975V123.746L505.139 123.78C505.793 122.794 506.742 122.298 507.988 122.298C508.694 122.298 509.31 122.462 509.839 122.789C510.373 123.117 510.786 123.616 511.079 124.288C511.371 124.956 511.518 125.783 511.518 126.769C511.518 127.747 511.363 128.569 511.053 129.241C510.747 129.909 510.323 130.408 509.779 130.74C509.239 131.067 508.619 131.231 507.919 131.231ZM507.618 130.094C509.333 130.094 510.192 128.987 510.192 126.769C510.192 125.621 509.968 124.779 509.52 124.245C509.073 123.707 508.438 123.435 507.618 123.435C506.809 123.435 506.165 123.711 505.69 124.262C505.212 124.809 504.975 125.645 504.975 126.769C504.975 127.889 505.212 128.724 505.69 129.276C506.165 129.823 506.809 130.094 507.618 130.094Z" fill="white"/>
<path d="M515.889 131.231C515.28 131.231 514.801 131.059 514.452 130.714C514.101 130.37 513.927 129.853 513.927 129.164V119.008H515.201V129.078C515.201 129.439 515.27 129.702 515.407 129.861C515.545 130.017 515.76 130.094 516.053 130.094C516.225 130.094 516.402 130.066 516.587 130.008L516.699 130.034L516.845 131.033C516.752 131.095 516.617 131.145 516.44 131.179C516.268 131.214 516.083 131.231 515.889 131.231Z" fill="white"/>
<path d="M525.336 127.052H519.422C519.461 128.098 519.715 128.867 520.18 129.36C520.645 129.849 521.282 130.093 522.091 130.093C522.704 130.093 523.197 129.985 523.571 129.765C523.944 129.548 524.239 129.203 524.458 128.732H524.622L525.448 129.223C525.194 129.849 524.794 130.34 524.243 130.696C523.696 131.053 522.98 131.23 522.091 131.23C521.258 131.23 520.543 131.066 519.947 130.739C519.349 130.411 518.891 129.916 518.57 129.248C518.247 128.583 518.088 127.756 518.088 126.768C518.088 125.792 518.256 124.967 518.596 124.295C518.934 123.623 519.399 123.124 519.99 122.796C520.58 122.465 521.256 122.297 522.013 122.297C523.115 122.297 523.976 122.607 524.596 123.227C525.216 123.847 525.528 124.769 525.534 125.992C525.534 126.475 525.521 126.8 525.5 126.966L525.336 127.052ZM524.277 125.992C524.254 125.079 524.049 124.416 523.666 124.002C523.281 123.585 522.73 123.374 522.013 123.374C521.26 123.374 520.67 123.585 520.24 124.002C519.81 124.422 519.547 125.086 519.457 125.992H524.277Z" fill="white"/>
<path d="M527.808 131.066V122.461H529.013V123.735L529.176 123.761C529.469 123.279 529.822 122.915 530.235 122.667C530.648 122.422 531.143 122.297 531.724 122.297C532.389 122.297 532.904 122.424 533.265 122.676C533.627 122.93 533.911 123.337 534.118 123.899H534.281C534.574 123.371 534.938 122.973 535.374 122.702C535.809 122.433 536.343 122.297 536.976 122.297C537.858 122.297 538.516 122.538 538.947 123.02C539.382 123.499 539.601 124.224 539.601 125.2V131.066H538.336V125.226C538.336 124.605 538.202 124.149 537.94 123.856C537.675 123.559 537.253 123.408 536.674 123.408C535.986 123.408 535.422 123.658 534.987 124.158C534.557 124.653 534.341 125.473 534.341 126.621V131.066H533.067V125.226C533.067 124.605 532.934 124.149 532.671 123.856C532.413 123.559 531.991 123.408 531.406 123.408C530.722 123.408 530.162 123.649 529.727 124.132C529.297 124.614 529.082 125.398 529.082 126.483V131.066H527.808Z" fill="white"/>
<path d="M546.217 126.094H541.775V124.957H546.217V126.094Z" fill="white"/>
<path d="M551.838 131.228C551.119 131.228 550.473 131.129 549.901 130.936C549.333 130.742 548.859 130.485 548.48 130.169C548.102 129.854 547.82 129.503 547.637 129.118L548.368 128.231H548.558C549.268 129.426 550.361 130.022 551.838 130.022C552.692 130.022 553.329 129.846 553.749 129.488C554.166 129.127 554.377 128.625 554.377 127.981C554.377 127.608 554.308 127.292 554.17 127.033C554.033 126.771 553.805 126.547 553.49 126.361C553.174 126.178 552.741 126.021 552.191 125.888L550.865 125.56C549.871 125.319 549.139 124.938 548.67 124.415C548.198 123.894 547.964 123.23 547.964 122.425C547.964 121.863 548.106 121.361 548.394 120.917C548.687 120.469 549.113 120.123 549.677 119.875C550.239 119.623 550.91 119.496 551.691 119.496C552.546 119.496 553.269 119.617 553.861 119.858C554.45 120.099 554.922 120.461 555.272 120.943L554.618 121.83H554.42C554.093 121.43 553.706 121.137 553.258 120.952C552.815 120.762 552.294 120.668 551.691 120.668C550.899 120.668 550.301 120.82 549.901 121.124C549.498 121.43 549.298 121.854 549.298 122.399C549.298 122.912 549.444 123.319 549.737 123.622C550.034 123.928 550.533 124.163 551.235 124.329L552.604 124.656C553.706 124.921 554.502 125.323 554.997 125.862C555.496 126.396 555.746 127.083 555.746 127.921C555.746 128.564 555.602 129.135 555.315 129.635C555.027 130.13 554.588 130.52 553.998 130.806C553.413 131.086 552.692 131.228 551.838 131.228Z" fill="white"/>
<path d="M561.554 131.23C560.745 131.23 560.039 131.057 559.436 130.713C558.838 130.368 558.378 129.864 558.05 129.197C557.728 128.531 557.568 127.722 557.568 126.768C557.568 125.816 557.728 125.002 558.05 124.33C558.378 123.658 558.838 123.154 559.436 122.814C560.039 122.469 560.745 122.297 561.554 122.297C562.368 122.297 563.073 122.469 563.672 122.814C564.274 123.154 564.735 123.658 565.058 124.33C565.385 125.002 565.548 125.816 565.548 126.768C565.548 127.722 565.385 128.531 565.058 129.197C564.735 129.864 564.274 130.368 563.672 130.713C563.073 131.057 562.368 131.23 561.554 131.23ZM561.554 130.093C562.415 130.093 563.071 129.823 563.525 129.283C563.977 128.738 564.205 127.9 564.205 126.768C564.205 125.63 563.977 124.793 563.525 124.252C563.071 123.707 562.415 123.434 561.554 123.434C560.698 123.434 560.041 123.707 559.583 124.252C559.122 124.793 558.894 125.63 558.894 126.768C558.894 127.9 559.122 128.738 559.583 129.283C560.041 129.823 560.698 130.093 561.554 130.093Z" fill="white"/>
<path d="M569.918 131.231C569.309 131.231 568.829 131.059 568.48 130.714C568.129 130.37 567.955 129.853 567.955 129.164V119.008H569.229V129.078C569.229 129.439 569.298 129.702 569.436 129.861C569.573 130.017 569.789 130.094 570.081 130.094C570.254 130.094 570.43 130.066 570.615 130.008L570.727 130.034L570.873 131.033C570.781 131.095 570.645 131.145 570.469 131.179C570.297 131.214 570.111 131.231 569.918 131.231Z" fill="white"/>
<path d="M576.61 131.066H574.862L571.591 122.461H572.96L575.671 129.619H575.843L578.529 122.461H579.872L576.61 131.066Z" fill="white"/>
<path d="M582.418 120.8C582.147 120.8 581.928 120.718 581.756 120.55C581.588 120.377 581.506 120.162 581.506 119.904C581.506 119.645 581.588 119.434 581.756 119.266C581.928 119.094 582.147 119.008 582.418 119.008C582.687 119.008 582.905 119.094 583.073 119.266C583.245 119.434 583.331 119.645 583.331 119.904C583.331 120.162 583.245 120.377 583.073 120.55C582.905 120.718 582.687 120.8 582.418 120.8ZM581.781 131.067V122.462H583.055V131.067H581.781Z" fill="white"/>
<path d="M586.046 131.066V122.461H587.251V123.813L587.415 123.847C587.701 123.343 588.065 122.958 588.508 122.693C588.956 122.43 589.498 122.297 590.135 122.297C591.172 122.297 591.925 122.562 592.39 123.089C592.855 123.619 593.088 124.431 593.088 125.527V131.066H591.814V125.562C591.814 125.04 591.747 124.621 591.616 124.304C591.482 123.99 591.275 123.761 590.996 123.623C590.72 123.481 590.354 123.408 589.902 123.408C589.128 123.408 588.501 123.664 588.026 124.175C587.555 124.687 587.32 125.51 587.32 126.647V131.066H586.046Z" fill="white"/>
<path d="M598.873 134.719C597.517 134.719 596.527 134.491 595.903 134.039C595.284 133.584 594.974 132.983 594.974 132.238C594.974 131.756 595.116 131.371 595.404 131.084C595.697 130.798 596.121 130.591 596.678 130.464V130.3C596.413 130.152 596.215 129.977 596.084 129.775C595.951 129.568 595.886 129.325 595.886 129.043C595.886 128.711 595.989 128.44 596.196 128.233C596.407 128.026 596.721 127.869 597.134 127.759V127.595C596.198 127.102 595.731 126.299 595.731 125.184C595.731 124.621 595.856 124.122 596.11 123.685C596.368 123.25 596.732 122.909 597.203 122.668C597.679 122.423 598.232 122.298 598.865 122.298C599.588 122.298 600.19 122.457 600.672 122.772C600.849 122.571 600.984 122.356 601.077 122.126C601.167 121.891 601.228 121.63 601.258 121.342L601.421 121.238L602.463 121.488C602.411 121.925 602.278 122.296 602.067 122.599C601.86 122.899 601.563 123.146 601.18 123.34V123.504C601.456 123.723 601.658 123.982 601.791 124.279C601.923 124.572 601.989 124.914 601.989 125.304C601.989 125.845 601.856 126.329 601.593 126.76C601.335 127.191 600.967 127.531 600.492 127.776C600.02 128.024 599.478 128.147 598.865 128.147C598.789 128.147 598.658 128.142 598.469 128.129C598.262 128.125 598.109 128.121 598.012 128.121C597.741 128.121 597.526 128.194 597.367 128.336C597.205 128.474 597.126 128.653 597.126 128.87C597.126 129.142 597.212 129.34 597.384 129.465C597.556 129.592 597.842 129.663 598.245 129.68L600.285 129.749C601.163 129.779 601.811 129.982 602.231 130.361C602.654 130.74 602.868 131.274 602.868 131.963C602.868 132.48 602.73 132.945 602.454 133.358C602.179 133.772 601.742 134.101 601.146 134.349C600.548 134.594 599.79 134.719 598.873 134.719ZM598.865 127.053C599.472 127.053 599.943 126.896 600.276 126.579C600.608 126.265 600.776 125.819 600.776 125.244C600.776 124.654 600.608 124.197 600.276 123.874C599.949 123.553 599.478 123.392 598.865 123.392C598.249 123.392 597.78 123.553 597.453 123.874C597.13 124.191 596.971 124.647 596.971 125.244C596.971 125.825 597.13 126.273 597.453 126.588C597.78 126.898 598.249 127.053 598.865 127.053ZM598.873 133.625C599.51 133.625 600.029 133.552 600.431 133.41C600.832 133.272 601.122 133.087 601.301 132.859C601.477 132.628 601.568 132.37 601.568 132.083C601.568 131.825 601.518 131.618 601.421 131.463C601.322 131.308 601.167 131.19 600.956 131.11C600.743 131.037 600.453 130.987 600.087 130.964L598.159 130.869H597.883C596.809 130.886 596.274 131.304 596.274 132.126C596.274 133.126 597.139 133.625 598.873 133.625Z" fill="white"/>
<path d="M612.157 131.228C611.438 131.228 610.793 131.129 610.22 130.936C609.652 130.742 609.178 130.485 608.8 130.169C608.421 129.854 608.139 129.503 607.956 129.118L608.688 128.231H608.877C609.587 129.426 610.681 130.022 612.157 130.022C613.011 130.022 613.648 129.846 614.068 129.488C614.486 129.127 614.696 128.625 614.696 127.981C614.696 127.608 614.628 127.292 614.49 127.033C614.352 126.771 614.124 126.547 613.81 126.361C613.493 126.178 613.061 126.021 612.51 125.888L611.184 125.56C610.19 125.319 609.458 124.938 608.989 124.415C608.518 123.894 608.283 123.23 608.283 122.425C608.283 121.863 608.425 121.361 608.714 120.917C609.006 120.469 609.432 120.123 609.996 119.875C610.558 119.623 611.229 119.496 612.011 119.496C612.865 119.496 613.588 119.617 614.18 119.858C614.77 120.099 615.241 120.461 615.592 120.943L614.937 121.83H614.739C614.412 121.43 614.025 121.137 613.577 120.952C613.134 120.762 612.613 120.668 612.011 120.668C611.219 120.668 610.62 120.82 610.22 121.124C609.818 121.43 609.617 121.854 609.617 122.399C609.617 122.912 609.764 123.319 610.057 123.622C610.353 123.928 610.853 124.163 611.554 124.329L612.923 124.656C614.025 124.921 614.821 125.323 615.316 125.862C615.816 126.396 616.065 127.083 616.065 127.921C616.065 128.564 615.921 129.135 615.635 129.635C615.346 130.13 614.907 130.52 614.318 130.806C613.732 131.086 613.011 131.228 612.157 131.228Z" fill="white"/>
<path d="M618.438 131.067V119.008H619.713V126.054H619.919L623.113 122.462H624.447V122.643L621.038 126.502L624.774 130.869V131.067H623.354L619.919 127.088H619.713V131.067H618.438Z" fill="white"/>
<path d="M627.075 120.8C626.803 120.8 626.584 120.718 626.412 120.55C626.244 120.377 626.162 120.162 626.162 119.904C626.162 119.645 626.244 119.434 626.412 119.266C626.584 119.094 626.803 119.008 627.075 119.008C627.344 119.008 627.561 119.094 627.729 119.266C627.901 119.434 627.987 119.645 627.987 119.904C627.987 120.162 627.901 120.377 627.729 120.55C627.561 120.718 627.344 120.8 627.075 120.8ZM626.438 131.067V122.462H627.712V131.067H626.438Z" fill="white"/>
<path d="M632.631 131.231C632.022 131.231 631.542 131.059 631.193 130.714C630.842 130.37 630.668 129.853 630.668 129.164V119.008H631.942V129.078C631.942 129.439 632.011 129.702 632.149 129.861C632.286 130.017 632.502 130.094 632.794 130.094C632.966 130.094 633.143 130.066 633.328 130.008L633.44 130.034L633.586 131.033C633.494 131.095 633.358 131.145 633.182 131.179C633.009 131.214 632.824 131.231 632.631 131.231Z" fill="white"/>
<path d="M637.308 131.231C636.699 131.231 636.219 131.059 635.871 130.714C635.52 130.37 635.346 129.853 635.346 129.164V119.008H636.62V129.078C636.62 129.439 636.689 129.702 636.826 129.861C636.964 130.017 637.179 130.094 637.472 130.094C637.644 130.094 637.821 130.066 638.006 130.008L638.118 130.034L638.264 131.033C638.171 131.095 638.036 131.145 637.859 131.179C637.687 131.214 637.502 131.231 637.308 131.231Z" fill="white"/>
<path d="M642.486 131.23C641.939 131.23 641.437 131.156 640.979 131.014C640.519 130.872 640.131 130.676 639.817 130.429C639.501 130.177 639.277 129.894 639.146 129.584L639.894 128.8H640.058C640.338 129.231 640.673 129.556 641.065 129.774C641.461 129.987 641.935 130.093 642.486 130.093C643.116 130.093 643.596 129.97 643.923 129.722C644.255 129.477 644.422 129.132 644.422 128.688C644.422 128.35 644.321 128.073 644.121 127.853C643.919 127.629 643.596 127.463 643.148 127.353L641.702 126.992C640.927 126.808 640.361 126.513 640.006 126.104C639.649 125.697 639.473 125.195 639.473 124.597C639.473 124.132 639.589 123.727 639.826 123.382C640.067 123.033 640.411 122.766 640.859 122.581C641.311 122.392 641.849 122.297 642.468 122.297C643.254 122.297 643.874 122.409 644.328 122.633C644.786 122.852 645.141 123.158 645.395 123.555L644.681 124.252H644.526C644.25 123.938 643.949 123.71 643.622 123.572C643.299 123.43 642.916 123.356 642.468 123.356C641.9 123.356 641.463 123.46 641.16 123.667C640.861 123.869 640.712 124.162 640.712 124.545C640.712 124.89 640.818 125.172 641.031 125.389C641.242 125.603 641.616 125.773 642.15 125.898L643.57 126.242C644.321 126.421 644.864 126.716 645.197 127.129C645.529 127.539 645.696 128.051 645.696 128.671C645.696 129.177 645.576 129.623 645.335 130.006C645.094 130.392 644.732 130.693 644.25 130.911C643.768 131.122 643.179 131.23 642.486 131.23Z" fill="white"/>
<path d="M648.613 131.145C648.313 131.145 648.079 131.063 647.907 130.895C647.735 130.729 647.648 130.507 647.648 130.232C647.648 129.963 647.735 129.741 647.907 129.569C648.079 129.392 648.313 129.301 648.613 129.301C648.91 129.301 649.146 129.385 649.318 129.551C649.491 129.719 649.577 129.939 649.577 130.215C649.577 130.49 649.486 130.714 649.31 130.886C649.138 131.059 648.905 131.145 648.613 131.145ZM648.613 124.211C648.313 124.211 648.079 124.129 647.907 123.961C647.735 123.795 647.648 123.573 647.648 123.298C647.648 123.028 647.735 122.807 647.907 122.634C648.079 122.458 648.313 122.367 648.613 122.367C648.91 122.367 649.146 122.451 649.318 122.617C649.491 122.785 649.577 123.005 649.577 123.28C649.577 123.556 649.486 123.78 649.31 123.952C649.138 124.124 648.905 124.211 648.613 124.211Z" fill="white"/>
<path d="M659.139 131.228C658.037 131.228 657.159 130.979 656.505 130.479C655.855 129.979 655.437 129.288 655.248 128.403L656.238 127.955L656.419 127.981C656.619 128.666 656.927 129.176 657.34 129.514C657.753 129.854 658.351 130.022 659.139 130.022C659.948 130.022 660.562 129.839 660.981 129.471C661.405 129.099 661.618 128.554 661.618 127.834C661.618 127.135 661.403 126.601 660.973 126.232C660.542 125.86 659.866 125.672 658.95 125.672H657.71V124.57H658.812C659.529 124.57 660.099 124.393 660.525 124.036C660.949 123.674 661.162 123.17 661.162 122.52C661.162 121.899 660.977 121.439 660.611 121.133C660.243 120.823 659.729 120.668 659.07 120.668C657.921 120.668 657.103 121.124 656.617 122.037L656.436 122.072L655.687 121.253C655.997 120.726 656.438 120.302 657.013 119.978C657.592 119.658 658.278 119.496 659.07 119.496C659.798 119.496 660.417 119.612 660.93 119.841C661.446 120.065 661.836 120.39 662.1 120.814C662.363 121.24 662.496 121.749 662.496 122.339C662.496 122.903 662.333 123.396 662.006 123.82C661.683 124.247 661.252 124.578 660.714 124.82V124.983C661.472 125.168 662.04 125.509 662.419 126.008C662.798 126.504 662.987 127.111 662.987 127.834C662.987 128.916 662.662 129.751 662.014 130.341C661.371 130.933 660.413 131.228 659.139 131.228Z" fill="white"/>
<defs>
<filter id="filter0_d_3286_11962" x="0" y="0" width="757" height="209" filterUnits="userSpaceOnUse" color-interpolation-filters="sRGB">
<feFlood flood-opacity="0" result="BackgroundImageFix"/>
<feColorMatrix in="SourceAlpha" type="matrix" values="0 0 0 0 0 0 0 0 0 0 0 0 0 0 0 0 0 0 127 0" result="hardAlpha"/>
<feOffset/>
<feGaussianBlur stdDeviation="4"/>
<feComposite in2="hardAlpha" operator="out"/>
<feColorMatrix type="matrix" values="0 0 0 0 0 0 0 0 0 0 0 0 0 0 0 0 0 0 0.25 0"/>
<feBlend mode="normal" in2="BackgroundImageFix" result="effect1_dropShadow_3286_11962"/>
<feBlend mode="normal" in="SourceGraphic" in2="effect1_dropShadow_3286_11962" result="shape"/>
</filter>
<linearGradient id="paint0_linear_3286_11962" x1="8" y1="104.5" x2="749" y2="104.5" gradientUnits="userSpaceOnUse">
<stop stop-color="#355A6A"/>
<stop offset="1" stop-color="#1A2C33"/>
</linearGradient>
</defs>
</svg>
