<svg width="39" height="27" viewBox="0 0 39 27" fill="none" xmlns="http://www.w3.org/2000/svg">
<path d="M34.425 0L29.25 9C31.725 9 33.8438 9.88125 35.6062 11.6437C37.3687 13.4062 38.25 15.525 38.25 18C38.25 20.475 37.3687 22.5938 35.6062 24.3562C33.8438 26.1187 31.725 27 29.25 27C26.775 27 24.6562 26.1187 22.8937 24.3562C21.1312 22.5938 20.25 20.475 20.25 18C20.25 17.1375 20.3531 16.3406 20.5594 15.6094C20.7656 14.8781 21.075 14.175 21.4875 13.5L29.25 0H34.425ZM14.175 0L9 9C11.475 9 13.5938 9.88125 15.3562 11.6437C17.1187 13.4062 18 15.525 18 18C18 20.475 17.1187 22.5938 15.3562 24.3562C13.5938 26.1187 11.475 27 9 27C6.525 27 4.40625 26.1187 2.64375 24.3562C0.881248 22.5938 0 20.475 0 18C0 17.1375 0.103123 16.3406 0.309372 15.6094C0.515621 14.8781 0.824997 14.175 1.2375 13.5L9 0H14.175Z" fill="#FC9200"/>
</svg>
