<svg width="40" height="40" viewBox="0 0 40 40" fill="none" xmlns="http://www.w3.org/2000/svg">
<path opacity="0.2" d="M26.25 22.5C26.25 23.7361 25.8834 24.9445 25.1967 25.9723C24.5099 27.0001 23.5338 27.8012 22.3918 28.2743C21.2497 28.7473 19.9931 28.8711 18.7807 28.6299C17.5683 28.3888 16.4547 27.7935 15.5806 26.9194C14.7065 26.0453 14.1113 24.9317 13.8701 23.7193C13.6289 22.5069 13.7527 21.2503 14.2258 20.1082C14.6988 18.9662 15.4999 17.9901 16.5277 17.3033C17.5555 16.6166 18.7639 16.25 20 16.25C21.6576 16.25 23.2473 16.9085 24.4194 18.0806C25.5915 19.2527 26.25 20.8424 26.25 22.5ZM10 8.75C9.0111 8.75 8.0444 9.04324 7.22215 9.59265C6.39991 10.1421 5.75904 10.923 5.3806 11.8366C5.00217 12.7502 4.90315 13.7555 5.09608 14.7255C5.289 15.6954 5.76521 16.5863 6.46447 17.2855C7.16373 17.9848 8.05465 18.461 9.02455 18.6539C9.99446 18.8469 10.9998 18.7478 11.9134 18.3694C12.8271 17.991 13.6079 17.3501 14.1574 16.5279C14.7068 15.7056 15 14.7389 15 13.75C15 12.4239 14.4732 11.1521 13.5355 10.2145C12.5979 9.27678 11.3261 8.75 10 8.75ZM30 8.75C29.0111 8.75 28.0444 9.04324 27.2222 9.59265C26.3999 10.1421 25.759 10.923 25.3806 11.8366C25.0022 12.7502 24.9031 13.7555 25.0961 14.7255C25.289 15.6954 25.7652 16.5863 26.4645 17.2855C27.1637 17.9848 28.0546 18.461 29.0246 18.6539C29.9945 18.8469 30.9998 18.7478 31.9134 18.3694C32.827 17.991 33.6079 17.3501 34.1574 16.5279C34.7068 15.7056 35 14.7389 35 13.75C35 12.4239 34.4732 11.1521 33.5355 10.2145C32.5979 9.27678 31.3261 8.75 30 8.75Z" fill="#EB9F3E"/>
<path d="M38.2505 23.4987C38.1191 23.5971 37.9697 23.6688 37.8107 23.7095C37.6517 23.7503 37.4862 23.7593 37.3237 23.7361C37.1612 23.7129 37.0049 23.6579 36.8636 23.5742C36.7224 23.4906 36.599 23.38 36.5005 23.2487C35.7471 22.2359 34.7664 21.4143 33.6374 20.8498C32.5084 20.2853 31.2627 19.9938 30.0005 19.9987C29.669 19.9987 29.351 19.867 29.1166 19.6325C28.8822 19.3981 28.7505 19.0802 28.7505 18.7487C28.7505 18.4171 28.8822 18.0992 29.1166 17.8648C29.351 17.6303 29.669 17.4987 30.0005 17.4987C30.7018 17.4986 31.3891 17.3018 31.9843 16.9307C32.5794 16.5597 33.0586 16.0291 33.3673 15.3993C33.676 14.7696 33.802 14.0659 33.7308 13.3681C33.6596 12.6704 33.3942 12.0066 32.9647 11.4521C32.5352 10.8977 31.9588 10.4748 31.3009 10.2315C30.6431 9.9882 29.9303 9.93427 29.2433 10.0758C28.5564 10.2174 27.9229 10.5487 27.4149 11.0322C26.9068 11.5158 26.5446 12.1321 26.3692 12.8112C26.3282 12.9702 26.2562 13.1196 26.1575 13.2508C26.0587 13.382 25.935 13.4925 25.7936 13.5759C25.6521 13.6593 25.4956 13.7141 25.333 13.737C25.1704 13.7599 25.0048 13.7506 24.8458 13.7096C24.6868 13.6686 24.5374 13.5966 24.4062 13.4978C24.275 13.3991 24.1645 13.2754 24.0811 13.1339C23.9976 12.9925 23.9429 12.836 23.9199 12.6733C23.897 12.5107 23.9063 12.3452 23.9473 12.1862C24.1907 11.2445 24.6505 10.3726 25.2901 9.63983C25.9298 8.9071 26.7316 8.33376 27.6318 7.96545C28.532 7.59713 29.5057 7.444 30.4755 7.51823C31.4453 7.59246 32.3844 7.89201 33.2181 8.39304C34.0517 8.89408 34.757 9.58276 35.2776 10.4043C35.7983 11.2258 36.12 12.1576 36.2172 13.1253C36.3144 14.0931 36.1845 15.0702 35.8376 15.9789C35.4907 16.8876 34.9366 17.7028 34.2192 18.3596C35.9189 19.0955 37.3965 20.2634 38.5052 21.7471C38.6036 21.8787 38.6752 22.0285 38.7157 22.1879C38.7562 22.3472 38.7649 22.513 38.7412 22.6757C38.7176 22.8384 38.662 22.9949 38.5778 23.1361C38.4936 23.2773 38.3824 23.4005 38.2505 23.4987ZM29.8317 33.1236C29.919 33.2659 29.9769 33.4243 30.002 33.5893C30.027 33.7543 30.0188 33.9227 29.9778 34.0845C29.9367 34.2463 29.8637 34.3982 29.763 34.5314C29.6623 34.6645 29.5359 34.7761 29.3914 34.8596C29.2468 34.9431 29.087 34.9967 28.9214 35.0175C28.7558 35.0382 28.5877 35.0256 28.427 34.9803C28.2663 34.935 28.1164 34.858 27.986 34.7538C27.8555 34.6496 27.7473 34.5203 27.6677 34.3736C26.8801 33.0407 25.7587 31.936 24.4141 31.1687C23.0694 30.4013 21.5479 29.9977 19.9997 29.9977C18.4515 29.9977 16.93 30.4013 15.5853 31.1687C14.2407 31.936 13.1192 33.0407 12.3317 34.3736C12.2536 34.523 12.146 34.6551 12.0155 34.7618C11.885 34.8685 11.7343 34.9478 11.5724 34.9947C11.4105 35.0417 11.2407 35.0555 11.0734 35.0351C10.906 35.0148 10.7445 34.9608 10.5986 34.8765C10.4526 34.7921 10.3252 34.6791 10.2241 34.5442C10.1229 34.4093 10.0501 34.2554 10.01 34.0916C9.9699 33.9279 9.96333 33.7577 9.99069 33.5914C10.0181 33.425 10.0788 33.2659 10.1692 33.1236C11.3811 31.0414 13.2289 29.4028 15.4411 28.4487C14.1963 27.4956 13.2815 26.1764 12.8252 24.6765C12.3689 23.1766 12.3941 21.5715 12.8972 20.0866C13.4004 18.6018 14.3562 17.312 15.6303 16.3985C16.9044 15.4849 18.4327 14.9936 20.0005 14.9936C21.5682 14.9936 23.0966 15.4849 24.3707 16.3985C25.6448 17.312 26.6006 18.6018 27.1037 20.0866C27.6069 21.5715 27.6321 23.1766 27.1758 24.6765C26.7195 26.1764 25.8046 27.4956 24.5598 28.4487C26.772 29.4028 28.6199 31.0414 29.8317 33.1236ZM20.0005 27.4987C20.9894 27.4987 21.9561 27.2054 22.7783 26.656C23.6006 26.1066 24.2414 25.3257 24.6199 24.4121C24.9983 23.4984 25.0973 22.4931 24.9044 21.5232C24.7115 20.5533 24.2353 19.6624 23.536 18.9631C22.8367 18.2639 21.9458 17.7877 20.9759 17.5947C20.006 17.4018 19.0007 17.5008 18.0871 17.8793C17.1734 18.2577 16.3925 18.8986 15.8431 19.7208C15.2937 20.543 15.0005 21.5097 15.0005 22.4987C15.0005 23.8247 15.5273 25.0965 16.4649 26.0342C17.4026 26.9719 18.6744 27.4987 20.0005 27.4987ZM11.2505 18.7487C11.2505 18.4171 11.1188 18.0992 10.8844 17.8648C10.6499 17.6303 10.332 17.4987 10.0005 17.4987C9.29911 17.4986 8.61182 17.3018 8.01667 16.9307C7.42153 16.5597 6.94238 16.0291 6.63365 15.3993C6.32492 14.7696 6.19899 14.0659 6.27016 13.3681C6.34133 12.6704 6.60675 12.0066 7.03627 11.4521C7.46579 10.8977 8.04219 10.4748 8.7 10.2315C9.35782 9.9882 10.0707 9.93427 10.7576 10.0758C11.4445 10.2174 12.078 10.5487 12.5861 11.0322C13.0941 11.5158 13.4564 12.1321 13.6317 12.8112C13.7146 13.1323 13.9217 13.4074 14.2074 13.5759C14.4931 13.7444 14.834 13.7925 15.1552 13.7096C15.4763 13.6267 15.7514 13.4196 15.9199 13.1339C16.0884 12.8482 16.1365 12.5073 16.0536 12.1862C15.8102 11.2445 15.3504 10.3726 14.7108 9.63983C14.0712 8.9071 13.2694 8.33376 12.3692 7.96545C11.4689 7.59713 10.4952 7.444 9.52541 7.51823C8.55561 7.59246 7.61652 7.89201 6.78286 8.39304C5.9492 8.89408 5.24398 9.58276 4.72332 10.4043C4.20266 11.2258 3.88092 12.1576 3.78371 13.1253C3.68649 14.0931 3.81649 15.0702 4.16335 15.9789C4.51022 16.8876 5.06437 17.7028 5.78172 18.3596C4.08373 19.0962 2.60784 20.264 1.50047 21.7471C1.30135 22.0123 1.21575 22.3458 1.26248 22.6741C1.30922 23.0024 1.48448 23.2988 1.74969 23.4979C2.01491 23.697 2.34836 23.7826 2.6767 23.7359C3.00503 23.6891 3.30135 23.5139 3.50047 23.2487C4.25389 22.2359 5.23456 21.4143 6.36353 20.8498C7.49251 20.2853 8.73825 19.9938 10.0005 19.9987C10.332 19.9987 10.6499 19.867 10.8844 19.6325C11.1188 19.3981 11.2505 19.0802 11.2505 18.7487Z" fill="#EB9F3E"/>
</svg>
